<svg width="467" height="447" viewBox="0 0 467 447" fill="none" xmlns="http://www.w3.org/2000/svg">
<g clip-path="url(#clip0_231_518)">
<path d="M15.2764 276.438C15.204 276.353 15.1526 276.252 15.1264 276.143C5.37521 235.853 7.01465 193.644 19.8616 154.232C32.7085 114.82 56.2569 79.7574 87.8759 52.9615C119.495 26.1655 157.939 8.69175 198.913 2.49231C239.887 -3.70712 281.778 1.612 319.904 17.8554C319.99 17.892 320.068 17.9452 320.134 18.012C320.2 18.0788 320.251 18.1579 320.286 18.2447C320.321 18.3315 320.339 18.4244 320.338 18.518C320.337 18.6116 320.318 18.7041 320.281 18.7903C320.245 18.8764 320.191 18.9545 320.125 19.0201C320.058 19.0856 319.979 19.1374 319.892 19.1724C319.805 19.2075 319.712 19.225 319.619 19.2242C319.525 19.2233 319.433 19.204 319.347 19.1674C241.343 -14.0123 152.831 -0.490176 88.3502 54.457C24.2632 109.069 -3.26342 193.885 16.5123 275.808C16.55 275.964 16.534 276.128 16.4669 276.274C16.3999 276.42 16.2857 276.538 16.1428 276.611C15.9999 276.684 15.8367 276.706 15.6795 276.675C15.5223 276.643 15.3803 276.56 15.2764 276.438Z" fill="#E6E6E6"/>
<path d="M145.553 429.423C145.448 429.301 145.388 429.147 145.382 428.987C145.376 428.827 145.424 428.669 145.519 428.54C145.613 428.41 145.749 428.316 145.903 428.273C146.058 428.23 146.222 428.241 146.37 428.303C224.08 460.858 312.167 447.156 376.255 392.544C441.342 337.08 468.982 251.821 448.389 170.041C448.366 169.95 448.361 169.855 448.375 169.763C448.388 169.67 448.42 169.581 448.468 169.501C448.516 169.42 448.58 169.35 448.655 169.294C448.73 169.239 448.815 169.198 448.906 169.175C448.997 169.152 449.091 169.148 449.184 169.161C449.276 169.175 449.365 169.207 449.446 169.255C449.526 169.303 449.596 169.366 449.652 169.442C449.708 169.517 449.748 169.602 449.771 169.693C459.765 209.433 458.498 251.171 446.112 290.231C433.287 330.484 409.4 366.316 377.179 393.629C345.719 420.452 307.436 438.018 266.59 444.371C225.743 450.725 183.936 445.618 145.819 429.618C145.716 429.575 145.625 429.508 145.553 429.423Z" fill="#E6E6E6"/>
<path d="M129.083 442.077C129.022 442.006 128.976 441.923 128.947 441.834C128.918 441.745 128.907 441.651 128.915 441.558C128.922 441.464 128.948 441.374 128.991 441.29C129.033 441.207 129.092 441.133 129.163 441.072L465.825 154.185C465.969 154.063 466.156 154.002 466.344 154.017C466.532 154.032 466.707 154.122 466.83 154.266C466.952 154.41 467.013 154.596 466.998 154.785C466.983 154.973 466.893 155.148 466.749 155.271L130.087 442.157C130.016 442.218 129.934 442.264 129.845 442.293C129.756 442.322 129.662 442.333 129.568 442.325C129.475 442.318 129.384 442.292 129.301 442.25C129.217 442.207 129.143 442.148 129.083 442.077Z" fill="#E6E6E6"/>
<path d="M129.083 442.077C129.022 442.006 128.976 441.923 128.947 441.834C128.918 441.745 128.907 441.651 128.915 441.558C128.922 441.464 128.948 441.374 128.991 441.29C129.033 441.207 129.092 441.133 129.163 441.072L465.825 154.185C465.969 154.063 466.156 154.002 466.344 154.017C466.532 154.032 466.707 154.122 466.83 154.266C466.952 154.41 467.013 154.596 466.998 154.785C466.983 154.973 466.893 155.148 466.749 155.271L130.087 442.157C130.016 442.218 129.934 442.264 129.845 442.293C129.756 442.322 129.662 442.333 129.568 442.325C129.475 442.318 129.384 442.292 129.301 442.25C129.217 442.207 129.143 442.148 129.083 442.077Z" fill="#E6E6E6"/>
<path d="M393.608 118.245H263.31V117.562C263.31 117.031 263.099 116.521 262.723 116.145C262.347 115.769 261.838 115.558 261.306 115.558H206.23C205.699 115.558 205.19 115.769 204.814 116.145C204.438 116.521 204.227 117.031 204.227 117.562V118.245H73.3914C71.0538 118.245 68.812 119.173 67.1591 120.827C65.5062 122.48 64.5776 124.723 64.5776 127.061V305.541C64.5776 307.879 65.5062 310.122 67.1591 311.775C68.812 313.429 71.0538 314.358 73.3914 314.358H393.608C395.946 314.358 398.188 313.429 399.841 311.775C401.494 310.122 402.422 307.879 402.422 305.541V127.061C402.422 124.723 401.494 122.48 399.841 120.827C398.188 119.173 395.946 118.245 393.608 118.245Z" fill="#3F3D56"/>
<path d="M80.4007 137.009C80.182 137.009 79.9724 137.096 79.8178 137.251C79.6632 137.406 79.5762 137.616 79.576 137.834V307.126C79.5762 307.345 79.6632 307.555 79.8178 307.709C79.9724 307.864 80.182 307.951 80.4007 307.951H386.599C386.818 307.951 387.027 307.864 387.182 307.709C387.337 307.555 387.424 307.345 387.424 307.126V137.834C387.424 137.616 387.337 137.406 387.182 137.251C387.027 137.096 386.818 137.009 386.599 137.009H80.4007Z" fill="#1ABB81"/>
<path d="M233.231 128.991C235.011 128.991 236.454 127.547 236.454 125.767C236.454 123.986 235.011 122.543 233.231 122.543C231.451 122.543 230.009 123.986 230.009 125.767C230.009 127.547 231.451 128.991 233.231 128.991Z" fill="#6C63FF"/>
<path d="M408.29 302.329H377.625V299.161C377.625 298.987 377.429 298.846 377.187 298.846H366.674C366.432 298.846 366.236 298.987 366.236 299.161V302.329H359.665V299.161C359.665 298.987 359.468 298.846 359.226 298.846H348.713C348.471 298.846 348.275 298.987 348.275 299.161V302.329H341.704V299.161C341.704 298.987 341.507 298.846 341.265 298.846H330.752C330.51 298.846 330.314 298.987 330.314 299.161V302.329H323.743V299.161C323.743 298.987 323.547 298.846 323.305 298.846H312.791C312.549 298.846 312.353 298.987 312.353 299.161V302.329H305.782V299.161C305.782 298.987 305.586 298.846 305.344 298.846H294.83C294.588 298.846 294.392 298.987 294.392 299.161V302.329H287.821V299.161C287.821 298.987 287.625 298.846 287.383 298.846H276.869C276.627 298.846 276.431 298.987 276.431 299.161V302.329H269.86V299.161C269.86 298.987 269.664 298.846 269.422 298.846H187.064C186.822 298.846 186.626 298.987 186.626 299.161V302.329H180.055V299.161C180.055 298.987 179.859 298.846 179.617 298.846H169.103C168.861 298.846 168.665 298.987 168.665 299.161V302.329H162.094V299.161C162.094 298.987 161.898 298.846 161.656 298.846H151.142C150.901 298.846 150.704 298.987 150.704 299.161V302.329H144.133V299.161C144.133 298.987 143.937 298.846 143.695 298.846H133.182C132.94 298.846 132.743 298.987 132.743 299.161V302.329H126.172V299.161C126.172 298.987 125.976 298.846 125.734 298.846H115.221C114.979 298.846 114.783 298.987 114.783 299.161V302.329H108.211V299.161C108.211 298.987 108.015 298.846 107.773 298.846H97.2596C97.0177 298.846 96.8216 298.987 96.8216 299.161V302.329H90.2505V299.161C90.2505 298.987 90.0544 298.846 89.8124 298.846H79.2987C79.0568 298.846 78.8606 298.987 78.8606 299.161V302.329H58.7094C52.9028 302.329 48.1956 305.714 48.1956 309.889V313.308C48.1956 317.484 52.9028 320.869 58.7094 320.869H408.29C414.097 320.869 418.804 317.484 418.804 313.308V309.889C418.804 305.714 414.097 302.329 408.29 302.329Z" fill="#3F3D56"/>
<path d="M197.85 208.233H107.345C107.156 208.233 106.974 208.158 106.841 208.024C106.707 207.891 106.632 207.709 106.632 207.52C106.632 207.331 106.707 207.15 106.841 207.016C106.974 206.882 107.156 206.807 107.345 206.807H197.85C198.039 206.807 198.22 206.882 198.354 207.016C198.488 207.15 198.563 207.331 198.563 207.52C198.563 207.709 198.488 207.891 198.354 208.024C198.22 208.158 198.039 208.233 197.85 208.233Z" fill="#F2F2F2"/>
<path d="M197.85 223.916H107.345C107.156 223.916 106.974 223.841 106.841 223.708C106.707 223.574 106.632 223.393 106.632 223.203C106.632 223.014 106.707 222.833 106.841 222.699C106.974 222.566 107.156 222.491 107.345 222.491H197.85C198.039 222.491 198.22 222.566 198.354 222.699C198.488 222.833 198.563 223.014 198.563 223.203C198.563 223.393 198.488 223.574 198.354 223.708C198.22 223.841 198.039 223.916 197.85 223.916Z" fill="#F2F2F2"/>
<path d="M197.85 239.6H107.345C107.251 239.6 107.158 239.582 107.071 239.546C106.984 239.51 106.906 239.458 106.839 239.392C106.773 239.326 106.72 239.247 106.684 239.16C106.648 239.074 106.63 238.981 106.63 238.887C106.63 238.793 106.648 238.7 106.684 238.614C106.72 238.527 106.773 238.448 106.839 238.382C106.906 238.316 106.984 238.263 107.071 238.228C107.158 238.192 107.251 238.174 107.345 238.174H197.85C197.944 238.174 198.037 238.192 198.123 238.228C198.21 238.263 198.289 238.316 198.355 238.382C198.422 238.448 198.474 238.527 198.51 238.614C198.546 238.7 198.565 238.793 198.565 238.887C198.565 238.981 198.546 239.074 198.51 239.16C198.474 239.247 198.422 239.326 198.355 239.392C198.289 239.458 198.21 239.51 198.123 239.546C198.037 239.582 197.944 239.6 197.85 239.6Z" fill="#F2F2F2"/>
<path d="M351.424 167.242H239.539C238.359 167.242 237.402 168.2 237.402 169.381V277.026C237.402 278.207 238.359 279.165 239.539 279.165H351.424C352.605 279.165 353.562 278.207 353.562 277.026V169.381C353.562 168.2 352.605 167.242 351.424 167.242Z" fill="white"/>
<path d="M260.662 226.475C261.045 219.696 263.823 213.274 268.499 208.353C273.176 203.432 279.447 200.333 286.196 199.607C292.945 198.882 299.731 200.577 305.346 204.392C310.961 208.207 315.04 213.892 316.854 220.435C317.201 220.422 317.548 220.408 317.898 220.408C319.092 220.42 320.276 220.621 321.407 221.006C335.653 225.685 331.902 246.962 316.907 246.962H280.056C277.45 246.969 274.869 246.451 272.468 245.437C270.067 244.423 267.895 242.935 266.082 241.061C264.269 239.188 262.853 236.968 261.918 234.534C260.984 232.101 260.549 229.503 260.641 226.898C260.647 226.757 260.654 226.616 260.662 226.475Z" fill="#3F3D56"/>
<path d="M294.25 226.029V214.302H287.938V226.029H282.899L286.997 233.129L291.095 240.229L295.192 233.129L299.29 226.029H294.25Z" fill="white"/>
</g>
<defs>
<clipPath id="clip0_231_518">
<rect width="467" height="447" fill="white"/>
</clipPath>
</defs>
</svg>
