<svg width="238" height="142" viewBox="0 0 238 142" fill="none" xmlns="http://www.w3.org/2000/svg">
<path d="M194.55 1.17269C194.874 1.17269 195.136 0.910178 195.136 0.586347C195.136 0.262517 194.874 0 194.55 0C194.226 0 193.964 0.262517 193.964 0.586347C193.964 0.910178 194.226 1.17269 194.55 1.17269Z" fill="#1ABB81"/>
<path d="M194.55 11.469C195.036 11.469 195.43 11.0752 195.43 10.5895C195.43 10.1037 195.036 9.70996 194.55 9.70996C194.064 9.70996 193.671 10.1037 193.671 10.5895C193.671 11.0752 194.064 11.469 194.55 11.469Z" fill="#1ABB81"/>
<path d="M224.841 11.469C225.326 11.469 225.72 11.0752 225.72 10.5895C225.72 10.1037 225.326 9.70996 224.841 9.70996C224.355 9.70996 223.961 10.1037 223.961 10.5895C223.961 11.0752 224.355 11.469 224.841 11.469Z" fill="#1ABB81"/>
<path d="M2.73236 52.6776C3.86577 52.6776 4.78458 51.7587 4.78458 50.6253C4.78458 49.4919 3.86577 48.5731 2.73236 48.5731C1.59895 48.5731 0.680145 49.4919 0.680145 50.6253C0.680145 51.7587 1.59895 52.6776 2.73236 52.6776Z" fill="#1ABB81"/>
<path d="M2.73235 62.9737C4.02767 62.9737 5.07774 61.9237 5.07774 60.6283C5.07774 59.333 4.02767 58.283 2.73235 58.283C1.43703 58.283 0.386963 59.333 0.386963 60.6283C0.386963 61.9237 1.43703 62.9737 2.73235 62.9737Z" fill="#1ABB81"/>
<path d="M5.46476 70.6314C5.46476 72.1442 4.24515 73.3638 2.73238 73.3638C1.2196 73.3638 0 72.1442 0 70.6314C0 69.1186 1.2196 67.899 2.73238 67.899C4.24515 67.899 5.46476 69.1186 5.46476 70.6314Z" fill="#1ABB81"/>
<path d="M2.73235 82.9798C4.02767 82.9798 5.07774 81.9298 5.07774 80.6345C5.07774 79.3391 4.02767 78.2891 2.73235 78.2891C1.43703 78.2891 0.386963 79.3391 0.386963 80.6345C0.386963 81.9298 1.43703 82.9798 2.73235 82.9798Z" fill="#1ABB81"/>
<path d="M2.73236 92.7016C3.86577 92.7016 4.78458 91.7828 4.78458 90.6494C4.78458 89.516 3.86577 88.5972 2.73236 88.5972C1.59895 88.5972 0.680145 89.516 0.680145 90.6494C0.680145 91.7828 1.59895 92.7016 2.73236 92.7016Z" fill="#1ABB81"/>
<path d="M12.8293 32.0733C13.6388 32.0733 14.2951 31.417 14.2951 30.6075C14.2951 29.7979 13.6388 29.1416 12.8293 29.1416C12.0197 29.1416 11.3634 29.7979 11.3634 30.6075C11.3634 31.417 12.0197 32.0733 12.8293 32.0733Z" fill="#1ABB81"/>
<path d="M12.8293 42.3696C13.8008 42.3696 14.5883 41.5821 14.5883 40.6106C14.5883 39.6391 13.8008 38.8516 12.8293 38.8516C11.8578 38.8516 11.0703 39.6391 11.0703 40.6106C11.0703 41.5821 11.8578 42.3696 12.8293 42.3696Z" fill="#1ABB81"/>
<path d="M12.8293 52.6776C13.9627 52.6776 14.8815 51.7587 14.8815 50.6253C14.8815 49.4919 13.9627 48.5731 12.8293 48.5731C11.6959 48.5731 10.7771 49.4919 10.7771 50.6253C10.7771 51.7587 11.6959 52.6776 12.8293 52.6776Z" fill="#1ABB81"/>
<path d="M12.8293 62.9737C14.1246 62.9737 15.1747 61.9237 15.1747 60.6283C15.1747 59.333 14.1246 58.283 12.8293 58.283C11.534 58.283 10.4839 59.333 10.4839 60.6283C10.4839 61.9237 11.534 62.9737 12.8293 62.9737Z" fill="#1ABB81"/>
<path d="M15.5617 70.6314C15.5617 72.1442 14.342 73.3638 12.8293 73.3638C11.3165 73.3638 10.0969 72.1442 10.0969 70.6314C10.0969 69.1186 11.3165 67.899 12.8293 67.899C14.342 67.899 15.5617 69.1186 15.5617 70.6314Z" fill="#1ABB81"/>
<path d="M12.8293 82.9798C14.1246 82.9798 15.1747 81.9298 15.1747 80.6345C15.1747 79.3391 14.1246 78.2891 12.8293 78.2891C11.534 78.2891 10.4839 79.3391 10.4839 80.6345C10.4839 81.9298 11.534 82.9798 12.8293 82.9798Z" fill="#1ABB81"/>
<path d="M12.8293 92.7016C13.9627 92.7016 14.8815 91.7828 14.8815 90.6494C14.8815 89.516 13.9627 88.5972 12.8293 88.5972C11.6959 88.5972 10.7771 89.516 10.7771 90.6494C10.7771 91.7828 11.6959 92.7016 12.8293 92.7016Z" fill="#1ABB81"/>
<path d="M12.8293 102.412C13.8008 102.412 14.5883 101.624 14.5883 100.652C14.5883 99.681 13.8008 98.8934 12.8293 98.8934C11.8578 98.8934 11.0703 99.681 11.0703 100.652C11.0703 101.624 11.8578 102.412 12.8293 102.412Z" fill="#1ABB81"/>
<path d="M53.2051 42.3696C54.1766 42.3696 54.9642 41.5821 54.9642 40.6106C54.9642 39.6391 54.1766 38.8516 53.2051 38.8516C52.2337 38.8516 51.4461 39.6391 51.4461 40.6106C51.4461 41.5821 52.2337 42.3696 53.2051 42.3696Z" fill="#1ABB81"/>
<path d="M53.2051 52.6776C54.3385 52.6776 55.2574 51.7587 55.2574 50.6253C55.2574 49.4919 54.3385 48.5731 53.2051 48.5731C52.0717 48.5731 51.1529 49.4919 51.1529 50.6253C51.1529 51.7587 52.0717 52.6776 53.2051 52.6776Z" fill="#1ABB81"/>
<path d="M53.2051 62.9737C54.5005 62.9737 55.5505 61.9237 55.5505 60.6283C55.5505 59.333 54.5005 58.283 53.2051 58.283C51.9098 58.283 50.8597 59.333 50.8597 60.6283C50.8597 61.9237 51.9098 62.9737 53.2051 62.9737Z" fill="#1ABB81"/>
<path d="M55.9375 70.6314C55.9375 72.1442 54.7179 73.3638 53.2052 73.3638C51.6924 73.3638 50.4728 72.1442 50.4728 70.6314C50.4728 69.1186 51.6924 67.899 53.2052 67.899C54.7179 67.899 55.9375 69.1186 55.9375 70.6314Z" fill="#1ABB81"/>
<path d="M53.2051 82.9798C54.5005 82.9798 55.5505 81.9298 55.5505 80.6345C55.5505 79.3391 54.5005 78.2891 53.2051 78.2891C51.9098 78.2891 50.8597 79.3391 50.8597 80.6345C50.8597 81.9298 51.9098 82.9798 53.2051 82.9798Z" fill="#1ABB81"/>
<path d="M53.2051 92.7016C54.3385 92.7016 55.2574 91.7828 55.2574 90.6494C55.2574 89.516 54.3385 88.5972 53.2051 88.5972C52.0717 88.5972 51.1529 89.516 51.1529 90.6494C51.1529 91.7828 52.0717 92.7016 53.2051 92.7016Z" fill="#1ABB81"/>
<path d="M53.2051 102.412C54.1766 102.412 54.9642 101.624 54.9642 100.652C54.9642 99.681 54.1766 98.8934 53.2051 98.8934C52.2337 98.8934 51.4461 99.681 51.4461 100.652C51.4461 101.624 52.2337 102.412 53.2051 102.412Z" fill="#1ABB81"/>
<path d="M12.8293 112.121C13.6388 112.121 14.2951 111.465 14.2951 110.656C14.2951 109.846 13.6388 109.19 12.8293 109.19C12.0197 109.19 11.3634 109.846 11.3634 110.656C11.3634 111.465 12.0197 112.121 12.8293 112.121Z" fill="#1ABB81"/>
<path d="M93.5928 32.0733C94.4023 32.0733 95.0586 31.417 95.0586 30.6075C95.0586 29.7979 94.4023 29.1416 93.5928 29.1416C92.7832 29.1416 92.1269 29.7979 92.1269 30.6075C92.1269 31.417 92.7832 32.0733 93.5928 32.0733Z" fill="#1ABB81"/>
<path d="M93.5928 42.3696C94.5642 42.3696 95.3518 41.5821 95.3518 40.6106C95.3518 39.6391 94.5642 38.8516 93.5928 38.8516C92.6213 38.8516 91.8337 39.6391 91.8337 40.6106C91.8337 41.5821 92.6213 42.3696 93.5928 42.3696Z" fill="#1ABB81"/>
<path d="M93.5927 52.6776C94.7261 52.6776 95.645 51.7587 95.645 50.6253C95.645 49.4919 94.7261 48.5731 93.5927 48.5731C92.4593 48.5731 91.5405 49.4919 91.5405 50.6253C91.5405 51.7587 92.4593 52.6776 93.5927 52.6776Z" fill="#1ABB81"/>
<path d="M93.5928 62.9737C94.8881 62.9737 95.9382 61.9237 95.9382 60.6283C95.9382 59.333 94.8881 58.283 93.5928 58.283C92.2974 58.283 91.2474 59.333 91.2474 60.6283C91.2474 61.9237 92.2974 62.9737 93.5928 62.9737Z" fill="#1ABB81"/>
<path d="M96.3251 70.6314C96.3251 72.1442 95.1055 73.3638 93.5928 73.3638C92.08 73.3638 90.8604 72.1442 90.8604 70.6314C90.8604 69.1186 92.08 67.899 93.5928 67.899C95.1055 67.899 96.3251 69.1186 96.3251 70.6314Z" fill="#1ABB81"/>
<path d="M93.5928 82.9798C94.8881 82.9798 95.9382 81.9298 95.9382 80.6345C95.9382 79.3391 94.8881 78.2891 93.5928 78.2891C92.2974 78.2891 91.2474 79.3391 91.2474 80.6345C91.2474 81.9298 92.2974 82.9798 93.5928 82.9798Z" fill="#1ABB81"/>
<path d="M93.5927 92.7016C94.7261 92.7016 95.645 91.7828 95.645 90.6494C95.645 89.516 94.7261 88.5972 93.5927 88.5972C92.4593 88.5972 91.5405 89.516 91.5405 90.6494C91.5405 91.7828 92.4593 92.7016 93.5927 92.7016Z" fill="#1ABB81"/>
<path d="M93.5928 102.412C94.5642 102.412 95.3518 101.624 95.3518 100.652C95.3518 99.681 94.5642 98.8934 93.5928 98.8934C92.6213 98.8934 91.8337 99.681 91.8337 100.652C91.8337 101.624 92.6213 102.412 93.5928 102.412Z" fill="#1ABB81"/>
<path d="M93.5928 112.121C94.4023 112.121 95.0586 111.465 95.0586 110.656C95.0586 109.846 94.4023 109.19 93.5928 109.19C92.7832 109.19 92.1269 109.846 92.1269 110.656C92.1269 111.465 92.7832 112.121 93.5928 112.121Z" fill="#1ABB81"/>
<path d="M103.69 32.0733C104.499 32.0733 105.155 31.417 105.155 30.6075C105.155 29.7979 104.499 29.1416 103.69 29.1416C102.88 29.1416 102.224 29.7979 102.224 30.6075C102.224 31.417 102.88 32.0733 103.69 32.0733Z" fill="#1ABB81"/>
<path d="M103.69 42.3696C104.661 42.3696 105.449 41.5821 105.449 40.6106C105.449 39.6391 104.661 38.8516 103.69 38.8516C102.718 38.8516 101.931 39.6391 101.931 40.6106C101.931 41.5821 102.718 42.3696 103.69 42.3696Z" fill="#1ABB81"/>
<path d="M103.69 52.6776C104.823 52.6776 105.742 51.7587 105.742 50.6253C105.742 49.4919 104.823 48.5731 103.69 48.5731C102.556 48.5731 101.637 49.4919 101.637 50.6253C101.637 51.7587 102.556 52.6776 103.69 52.6776Z" fill="#1ABB81"/>
<path d="M103.69 62.9737C104.985 62.9737 106.035 61.9237 106.035 60.6283C106.035 59.333 104.985 58.283 103.69 58.283C102.394 58.283 101.344 59.333 101.344 60.6283C101.344 61.9237 102.394 62.9737 103.69 62.9737Z" fill="#1ABB81"/>
<path d="M106.422 70.6314C106.422 72.1442 105.202 73.3638 103.69 73.3638C102.177 73.3638 100.957 72.1442 100.957 70.6314C100.957 69.1186 102.177 67.899 103.69 67.899C105.202 67.899 106.422 69.1186 106.422 70.6314Z" fill="#1ABB81"/>
<path d="M103.69 82.9798C104.985 82.9798 106.035 81.9298 106.035 80.6345C106.035 79.3391 104.985 78.2891 103.69 78.2891C102.394 78.2891 101.344 79.3391 101.344 80.6345C101.344 81.9298 102.394 82.9798 103.69 82.9798Z" fill="#1ABB81"/>
<path d="M103.69 92.7016C104.823 92.7016 105.742 91.7828 105.742 90.6494C105.742 89.516 104.823 88.5972 103.69 88.5972C102.556 88.5972 101.637 89.516 101.637 90.6494C101.637 91.7828 102.556 92.7016 103.69 92.7016Z" fill="#1ABB81"/>
<path d="M103.69 102.412C104.661 102.412 105.449 101.624 105.449 100.652C105.449 99.681 104.661 98.8934 103.69 98.8934C102.718 98.8934 101.931 99.681 101.931 100.652C101.931 101.624 102.718 102.412 103.69 102.412Z" fill="#1ABB81"/>
<path d="M103.69 112.121C104.499 112.121 105.155 111.465 105.155 110.656C105.155 109.846 104.499 109.19 103.69 109.19C102.88 109.19 102.224 109.846 102.224 110.656C102.224 111.465 102.88 112.121 103.69 112.121Z" fill="#1ABB81"/>
<path d="M123.883 42.3696C124.855 42.3696 125.643 41.5821 125.643 40.6106C125.643 39.6391 124.855 38.8516 123.883 38.8516C122.912 38.8516 122.124 39.6391 122.124 40.6106C122.124 41.5821 122.912 42.3696 123.883 42.3696Z" fill="#1ABB81"/>
<path d="M123.883 52.6776C125.017 52.6776 125.936 51.7587 125.936 50.6253C125.936 49.4919 125.017 48.5731 123.883 48.5731C122.75 48.5731 121.831 49.4919 121.831 50.6253C121.831 51.7587 122.75 52.6776 123.883 52.6776Z" fill="#1ABB81"/>
<path d="M123.883 62.9737C125.179 62.9737 126.229 61.9237 126.229 60.6283C126.229 59.333 125.179 58.283 123.883 58.283C122.588 58.283 121.538 59.333 121.538 60.6283C121.538 61.9237 122.588 62.9737 123.883 62.9737Z" fill="#1ABB81"/>
<path d="M126.616 70.6314C126.616 72.1442 125.396 73.3638 123.883 73.3638C122.371 73.3638 121.151 72.1442 121.151 70.6314C121.151 69.1186 122.371 67.899 123.883 67.899C125.396 67.899 126.616 69.1186 126.616 70.6314Z" fill="#1ABB81"/>
<path d="M123.883 82.9798C125.179 82.9798 126.229 81.9298 126.229 80.6345C126.229 79.3391 125.179 78.2891 123.883 78.2891C122.588 78.2891 121.538 79.3391 121.538 80.6345C121.538 81.9298 122.588 82.9798 123.883 82.9798Z" fill="#1ABB81"/>
<path d="M123.883 92.7016C125.017 92.7016 125.936 91.7828 125.936 90.6494C125.936 89.516 125.017 88.5972 123.883 88.5972C122.75 88.5972 121.831 89.516 121.831 90.6494C121.831 91.7828 122.75 92.7016 123.883 92.7016Z" fill="#1ABB81"/>
<path d="M123.883 102.412C124.855 102.412 125.643 101.624 125.643 100.652C125.643 99.681 124.855 98.8934 123.883 98.8934C122.912 98.8934 122.124 99.681 122.124 100.652C122.124 101.624 122.912 102.412 123.883 102.412Z" fill="#1ABB81"/>
<path d="M133.98 32.0733C134.79 32.0733 135.446 31.417 135.446 30.6075C135.446 29.7979 134.79 29.1416 133.98 29.1416C133.171 29.1416 132.514 29.7979 132.514 30.6075C132.514 31.417 133.171 32.0733 133.98 32.0733Z" fill="#1ABB81"/>
<path d="M133.98 42.3696C134.952 42.3696 135.739 41.5821 135.739 40.6106C135.739 39.6391 134.952 38.8516 133.98 38.8516C133.009 38.8516 132.221 39.6391 132.221 40.6106C132.221 41.5821 133.009 42.3696 133.98 42.3696Z" fill="#1ABB81"/>
<path d="M133.98 52.6776C135.114 52.6776 136.033 51.7587 136.033 50.6253C136.033 49.4919 135.114 48.5731 133.98 48.5731C132.847 48.5731 131.928 49.4919 131.928 50.6253C131.928 51.7587 132.847 52.6776 133.98 52.6776Z" fill="#1ABB81"/>
<path d="M133.98 62.9737C135.276 62.9737 136.326 61.9237 136.326 60.6283C136.326 59.333 135.276 58.283 133.98 58.283C132.685 58.283 131.635 59.333 131.635 60.6283C131.635 61.9237 132.685 62.9737 133.98 62.9737Z" fill="#1ABB81"/>
<path d="M136.713 70.6314C136.713 72.1442 135.493 73.3638 133.98 73.3638C132.468 73.3638 131.248 72.1442 131.248 70.6314C131.248 69.1186 132.468 67.899 133.98 67.899C135.493 67.899 136.713 69.1186 136.713 70.6314Z" fill="#1ABB81"/>
<path d="M133.98 82.9798C135.276 82.9798 136.326 81.9298 136.326 80.6345C136.326 79.3391 135.276 78.2891 133.98 78.2891C132.685 78.2891 131.635 79.3391 131.635 80.6345C131.635 81.9298 132.685 82.9798 133.98 82.9798Z" fill="#1ABB81"/>
<path d="M133.98 92.7016C135.114 92.7016 136.033 91.7828 136.033 90.6494C136.033 89.516 135.114 88.5972 133.98 88.5972C132.847 88.5972 131.928 89.516 131.928 90.6494C131.928 91.7828 132.847 92.7016 133.98 92.7016Z" fill="#1ABB81"/>
<path d="M133.98 102.412C134.952 102.412 135.739 101.624 135.739 100.652C135.739 99.681 134.952 98.8934 133.98 98.8934C133.009 98.8934 132.221 99.681 132.221 100.652C132.221 101.624 133.009 102.412 133.98 102.412Z" fill="#1ABB81"/>
<path d="M144.077 52.6776C145.211 52.6776 146.129 51.7587 146.129 50.6253C146.129 49.4919 145.211 48.5731 144.077 48.5731C142.944 48.5731 142.025 49.4919 142.025 50.6253C142.025 51.7587 142.944 52.6776 144.077 52.6776Z" fill="#1ABB81"/>
<path d="M144.077 62.9737C145.373 62.9737 146.423 61.9237 146.423 60.6283C146.423 59.333 145.373 58.283 144.077 58.283C142.782 58.283 141.732 59.333 141.732 60.6283C141.732 61.9237 142.782 62.9737 144.077 62.9737Z" fill="#1ABB81"/>
<path d="M146.81 70.6314C146.81 72.1442 145.59 73.3638 144.077 73.3638C142.565 73.3638 141.345 72.1442 141.345 70.6314C141.345 69.1186 142.565 67.899 144.077 67.899C145.59 67.899 146.81 69.1186 146.81 70.6314Z" fill="#1ABB81"/>
<path d="M144.077 82.9798C145.373 82.9798 146.423 81.9298 146.423 80.6345C146.423 79.3391 145.373 78.2891 144.077 78.2891C142.782 78.2891 141.732 79.3391 141.732 80.6345C141.732 81.9298 142.782 82.9798 144.077 82.9798Z" fill="#1ABB81"/>
<path d="M144.077 92.7016C145.211 92.7016 146.129 91.7828 146.129 90.6494C146.129 89.516 145.211 88.5972 144.077 88.5972C142.944 88.5972 142.025 89.516 142.025 90.6494C142.025 91.7828 142.944 92.7016 144.077 92.7016Z" fill="#1ABB81"/>
<path d="M154.174 42.3696C155.146 42.3696 155.933 41.5821 155.933 40.6106C155.933 39.6391 155.146 38.8516 154.174 38.8516C153.203 38.8516 152.415 39.6391 152.415 40.6106C152.415 41.5821 153.203 42.3696 154.174 42.3696Z" fill="#1ABB81"/>
<path d="M154.174 52.6776C155.308 52.6776 156.226 51.7587 156.226 50.6253C156.226 49.4919 155.308 48.5731 154.174 48.5731C153.041 48.5731 152.122 49.4919 152.122 50.6253C152.122 51.7587 153.041 52.6776 154.174 52.6776Z" fill="#1ABB81"/>
<path d="M154.174 62.9737C155.469 62.9737 156.52 61.9237 156.52 60.6283C156.52 59.333 155.469 58.283 154.174 58.283C152.879 58.283 151.829 59.333 151.829 60.6283C151.829 61.9237 152.879 62.9737 154.174 62.9737Z" fill="#1ABB81"/>
<path d="M156.895 70.6314C156.895 72.1442 155.675 73.3638 154.162 73.3638C152.65 73.3638 151.43 72.1442 151.43 70.6314C151.43 69.1186 152.65 67.899 154.162 67.899C155.675 67.899 156.895 69.1186 156.895 70.6314Z" fill="#1ABB81"/>
<path d="M154.174 82.9798C155.469 82.9798 156.52 81.9298 156.52 80.6345C156.52 79.3391 155.469 78.2891 154.174 78.2891C152.879 78.2891 151.829 79.3391 151.829 80.6345C151.829 81.9298 152.879 82.9798 154.174 82.9798Z" fill="#1ABB81"/>
<path d="M154.174 92.7016C155.308 92.7016 156.226 91.7828 156.226 90.6494C156.226 89.516 155.308 88.5972 154.174 88.5972C153.041 88.5972 152.122 89.516 152.122 90.6494C152.122 91.7828 153.041 92.7016 154.174 92.7016Z" fill="#1ABB81"/>
<path d="M164.259 62.9737C165.555 62.9737 166.605 61.9237 166.605 60.6283C166.605 59.333 165.555 58.283 164.259 58.283C162.964 58.283 161.914 59.333 161.914 60.6283C161.914 61.9237 162.964 62.9737 164.259 62.9737Z" fill="#1ABB81"/>
<path d="M166.992 70.6314C166.992 72.1442 165.772 73.3638 164.259 73.3638C162.747 73.3638 161.527 72.1442 161.527 70.6314C161.527 69.1186 162.747 67.899 164.259 67.899C165.772 67.899 166.992 69.1186 166.992 70.6314Z" fill="#1ABB81"/>
<path d="M164.259 82.9798C165.555 82.9798 166.605 81.9298 166.605 80.6345C166.605 79.3391 165.555 78.2891 164.259 78.2891C162.964 78.2891 161.914 79.3391 161.914 80.6345C161.914 81.9298 162.964 82.9798 164.259 82.9798Z" fill="#1ABB81"/>
<path d="M174.356 52.6776C175.49 52.6776 176.408 51.7587 176.408 50.6253C176.408 49.4919 175.49 48.5731 174.356 48.5731C173.223 48.5731 172.304 49.4919 172.304 50.6253C172.304 51.7587 173.223 52.6776 174.356 52.6776Z" fill="#1ABB81"/>
<path d="M174.356 62.9737C175.652 62.9737 176.702 61.9237 176.702 60.6283C176.702 59.333 175.652 58.283 174.356 58.283C173.061 58.283 172.011 59.333 172.011 60.6283C172.011 61.9237 173.061 62.9737 174.356 62.9737Z" fill="#1ABB81"/>
<path d="M177.089 70.6314C177.089 72.1442 175.869 73.3638 174.356 73.3638C172.843 73.3638 171.624 72.1442 171.624 70.6314C171.624 69.1186 172.843 67.899 174.356 67.899C175.869 67.899 177.089 69.1186 177.089 70.6314Z" fill="#1ABB81"/>
<path d="M174.356 82.9798C175.652 82.9798 176.702 81.9298 176.702 80.6345C176.702 79.3391 175.652 78.2891 174.356 78.2891C173.061 78.2891 172.011 79.3391 172.011 80.6345C172.011 81.9298 173.061 82.9798 174.356 82.9798Z" fill="#1ABB81"/>
<path d="M174.356 92.7016C175.49 92.7016 176.408 91.7828 176.408 90.6494C176.408 89.516 175.49 88.5972 174.356 88.5972C173.223 88.5972 172.304 89.516 172.304 90.6494C172.304 91.7828 173.223 92.7016 174.356 92.7016Z" fill="#1ABB81"/>
<path d="M154.174 102.412C155.146 102.412 155.933 101.624 155.933 100.652C155.933 99.681 155.146 98.8934 154.174 98.8934C153.203 98.8934 152.415 99.681 152.415 100.652C152.415 101.624 153.203 102.412 154.174 102.412Z" fill="#1ABB81"/>
<path d="M133.98 112.121C134.79 112.121 135.446 111.465 135.446 110.656C135.446 109.846 134.79 109.19 133.98 109.19C133.171 109.19 132.514 109.846 132.514 110.656C132.514 111.465 133.171 112.121 133.98 112.121Z" fill="#1ABB81"/>
<path d="M22.9262 62.9737C24.2215 62.9737 25.2716 61.9237 25.2716 60.6283C25.2716 59.333 24.2215 58.283 22.9262 58.283C21.6308 58.283 20.5808 59.333 20.5808 60.6283C20.5808 61.9237 21.6308 62.9737 22.9262 62.9737Z" fill="#1ABB81"/>
<path d="M25.6585 70.6314C25.6585 72.1442 24.4389 73.3638 22.9262 73.3638C21.4134 73.3638 20.1938 72.1442 20.1938 70.6314C20.1938 69.1186 21.4134 67.899 22.9262 67.899C24.4389 67.899 25.6585 69.1186 25.6585 70.6314Z" fill="#1ABB81"/>
<path d="M22.9262 82.9798C24.2215 82.9798 25.2716 81.9298 25.2716 80.6345C25.2716 79.3391 24.2215 78.2891 22.9262 78.2891C21.6308 78.2891 20.5808 79.3391 20.5808 80.6345C20.5808 81.9298 21.6308 82.9798 22.9262 82.9798Z" fill="#1ABB81"/>
<path d="M43.12 62.9737C44.4153 62.9737 45.4653 61.9237 45.4653 60.6283C45.4653 59.333 44.4153 58.283 43.12 58.283C41.8246 58.283 40.7746 59.333 40.7746 60.6283C40.7746 61.9237 41.8246 62.9737 43.12 62.9737Z" fill="#1ABB81"/>
<path d="M45.8406 70.6314C45.8406 72.1442 44.621 73.3638 43.1082 73.3638C41.5955 73.3638 40.3759 72.1442 40.3759 70.6314C40.3759 69.1186 41.5955 67.899 43.1082 67.899C44.621 67.899 45.8406 69.1186 45.8406 70.6314Z" fill="#1ABB81"/>
<path d="M43.12 82.9798C44.4153 82.9798 45.4653 81.9298 45.4653 80.6345C45.4653 79.3391 44.4153 78.2891 43.12 78.2891C41.8246 78.2891 40.7746 79.3391 40.7746 80.6345C40.7746 81.9298 41.8246 82.9798 43.12 82.9798Z" fill="#1ABB81"/>
<path d="M73.3989 62.9737C74.6943 62.9737 75.7443 61.9237 75.7443 60.6283C75.7443 59.333 74.6943 58.283 73.3989 58.283C72.1036 58.283 71.0536 59.333 71.0536 60.6283C71.0536 61.9237 72.1036 62.9737 73.3989 62.9737Z" fill="#1ABB81"/>
<path d="M76.1313 70.6314C76.1313 72.1442 74.9117 73.3638 73.3989 73.3638C71.8862 73.3638 70.6666 72.1442 70.6666 70.6314C70.6666 69.1186 71.8862 67.899 73.3989 67.899C74.9117 67.899 76.1313 69.1186 76.1313 70.6314Z" fill="#1ABB81"/>
<path d="M73.3989 82.9798C74.6943 82.9798 75.7443 81.9298 75.7443 80.6345C75.7443 79.3391 74.6943 78.2891 73.3989 78.2891C72.1036 78.2891 71.0536 79.3391 71.0536 80.6345C71.0536 81.9298 72.1036 82.9798 73.3989 82.9798Z" fill="#1ABB81"/>
<path d="M113.787 62.9737C115.082 62.9737 116.132 61.9237 116.132 60.6283C116.132 59.333 115.082 58.283 113.787 58.283C112.491 58.283 111.441 59.333 111.441 60.6283C111.441 61.9237 112.491 62.9737 113.787 62.9737Z" fill="#1ABB81"/>
<path d="M116.519 70.6314C116.519 72.1442 115.299 73.3638 113.787 73.3638C112.274 73.3638 111.054 72.1442 111.054 70.6314C111.054 69.1186 112.274 67.899 113.787 67.899C115.299 67.899 116.519 69.1186 116.519 70.6314Z" fill="#1ABB81"/>
<path d="M113.787 82.9798C115.082 82.9798 116.132 81.9298 116.132 80.6345C116.132 79.3391 115.082 78.2891 113.787 78.2891C112.491 78.2891 111.441 79.3391 111.441 80.6345C111.441 81.9298 112.491 82.9798 113.787 82.9798Z" fill="#1ABB81"/>
<path d="M33.0231 52.6776C34.1565 52.6776 35.0753 51.7587 35.0753 50.6253C35.0753 49.4919 34.1565 48.5731 33.0231 48.5731C31.8897 48.5731 30.9709 49.4919 30.9709 50.6253C30.9709 51.7587 31.8897 52.6776 33.0231 52.6776Z" fill="#1ABB81"/>
<path d="M33.0231 62.9737C34.3184 62.9737 35.3685 61.9237 35.3685 60.6283C35.3685 59.333 34.3184 58.283 33.0231 58.283C31.7278 58.283 30.6777 59.333 30.6777 60.6283C30.6777 61.9237 31.7278 62.9737 33.0231 62.9737Z" fill="#1ABB81"/>
<path d="M35.7554 70.6314C35.7554 72.1442 34.5358 73.3638 33.0231 73.3638C31.5103 73.3638 30.2907 72.1442 30.2907 70.6314C30.2907 69.1186 31.5103 67.899 33.0231 67.899C34.5358 67.899 35.7554 69.1186 35.7554 70.6314Z" fill="#1ABB81"/>
<path d="M33.0231 82.9798C34.3184 82.9798 35.3685 81.9298 35.3685 80.6345C35.3685 79.3391 34.3184 78.2891 33.0231 78.2891C31.7278 78.2891 30.6777 79.3391 30.6777 80.6345C30.6777 81.9298 31.7278 82.9798 33.0231 82.9798Z" fill="#1ABB81"/>
<path d="M33.0231 92.7016C34.1565 92.7016 35.0753 91.7828 35.0753 90.6494C35.0753 89.516 34.1565 88.5972 33.0231 88.5972C31.8897 88.5972 30.9709 89.516 30.9709 90.6494C30.9709 91.7828 31.8897 92.7016 33.0231 92.7016Z" fill="#1ABB81"/>
<path d="M83.4959 52.6776C84.6293 52.6776 85.5481 51.7587 85.5481 50.6253C85.5481 49.4919 84.6293 48.5731 83.4959 48.5731C82.3625 48.5731 81.4437 49.4919 81.4437 50.6253C81.4437 51.7587 82.3625 52.6776 83.4959 52.6776Z" fill="#1ABB81"/>
<path d="M83.4959 62.9737C84.7912 62.9737 85.8413 61.9237 85.8413 60.6283C85.8413 59.333 84.7912 58.283 83.4959 58.283C82.2005 58.283 81.1505 59.333 81.1505 60.6283C81.1505 61.9237 82.2005 62.9737 83.4959 62.9737Z" fill="#1ABB81"/>
<path d="M86.2282 70.6314C86.2282 72.1442 85.0086 73.3638 83.4958 73.3638C81.9831 73.3638 80.7635 72.1442 80.7635 70.6314C80.7635 69.1186 81.9831 67.899 83.4958 67.899C85.0086 67.899 86.2282 69.1186 86.2282 70.6314Z" fill="#1ABB81"/>
<path d="M83.4959 82.9798C84.7912 82.9798 85.8413 81.9298 85.8413 80.6345C85.8413 79.3391 84.7912 78.2891 83.4959 78.2891C82.2005 78.2891 81.1505 79.3391 81.1505 80.6345C81.1505 81.9298 82.2005 82.9798 83.4959 82.9798Z" fill="#1ABB81"/>
<path d="M83.4959 92.7016C84.6293 92.7016 85.5481 91.7828 85.5481 90.6494C85.5481 89.516 84.6293 88.5972 83.4959 88.5972C82.3625 88.5972 81.4437 89.516 81.4437 90.6494C81.4437 91.7828 82.3625 92.7016 83.4959 92.7016Z" fill="#1ABB81"/>
<path d="M66.0344 70.6314C66.0344 72.1442 64.8148 73.3638 63.302 73.3638C61.7893 73.3638 60.5697 72.1442 60.5697 70.6314C60.5697 69.1186 61.7893 67.899 63.302 67.899C64.8148 67.899 66.0344 69.1186 66.0344 70.6314Z" fill="#1ABB81"/>
<path d="M103.69 21.777C104.337 21.777 104.862 21.252 104.862 20.6043C104.862 19.9567 104.337 19.4316 103.69 19.4316C103.042 19.4316 102.517 19.9567 102.517 20.6043C102.517 21.252 103.042 21.777 103.69 21.777Z" fill="#1ABB81"/>
<path d="M103.69 121.843C104.337 121.843 104.862 121.318 104.862 120.67C104.862 120.023 104.337 119.498 103.69 119.498C103.042 119.498 102.517 120.023 102.517 120.67C102.517 121.318 103.042 121.843 103.69 121.843Z" fill="#1ABB81"/>
<path d="M184.453 32.0733C185.263 32.0733 185.919 31.417 185.919 30.6075C185.919 29.7979 185.263 29.1416 184.453 29.1416C183.644 29.1416 182.987 29.7979 182.987 30.6075C182.987 31.417 183.644 32.0733 184.453 32.0733Z" fill="#1ABB81"/>
<path d="M184.453 42.3696C185.425 42.3696 186.212 41.5821 186.212 40.6106C186.212 39.6391 185.425 38.8516 184.453 38.8516C183.482 38.8516 182.694 39.6391 182.694 40.6106C182.694 41.5821 183.482 42.3696 184.453 42.3696Z" fill="#1ABB81"/>
<path d="M184.453 52.6776C185.587 52.6776 186.505 51.7587 186.505 50.6253C186.505 49.4919 185.587 48.5731 184.453 48.5731C183.32 48.5731 182.401 49.4919 182.401 50.6253C182.401 51.7587 183.32 52.6776 184.453 52.6776Z" fill="#1ABB81"/>
<path d="M184.453 62.9737C185.748 62.9737 186.799 61.9237 186.799 60.6283C186.799 59.333 185.748 58.283 184.453 58.283C183.158 58.283 182.108 59.333 182.108 60.6283C182.108 61.9237 183.158 62.9737 184.453 62.9737Z" fill="#1ABB81"/>
<path d="M187.186 70.6314C187.186 72.1442 185.966 73.3638 184.453 73.3638C182.94 73.3638 181.721 72.1442 181.721 70.6314C181.721 69.1186 182.94 67.899 184.453 67.899C185.966 67.899 187.186 69.1186 187.186 70.6314Z" fill="#1ABB81"/>
<path d="M184.453 82.9798C185.748 82.9798 186.799 81.9298 186.799 80.6345C186.799 79.3391 185.748 78.2891 184.453 78.2891C183.158 78.2891 182.108 79.3391 182.108 80.6345C182.108 81.9298 183.158 82.9798 184.453 82.9798Z" fill="#1ABB81"/>
<path d="M184.453 92.7016C185.587 92.7016 186.505 91.7828 186.505 90.6494C186.505 89.516 185.587 88.5972 184.453 88.5972C183.32 88.5972 182.401 89.516 182.401 90.6494C182.401 91.7828 183.32 92.7016 184.453 92.7016Z" fill="#1ABB81"/>
<path d="M184.453 102.412C185.425 102.412 186.212 101.624 186.212 100.652C186.212 99.681 185.425 98.8934 184.453 98.8934C183.482 98.8934 182.694 99.681 182.694 100.652C182.694 101.624 183.482 102.412 184.453 102.412Z" fill="#1ABB81"/>
<path d="M184.453 112.121C185.263 112.121 185.919 111.465 185.919 110.656C185.919 109.846 185.263 109.19 184.453 109.19C183.644 109.19 182.987 109.846 182.987 110.656C182.987 111.465 183.644 112.121 184.453 112.121Z" fill="#1ABB81"/>
<path d="M184.453 21.777C185.101 21.777 185.626 21.252 185.626 20.6043C185.626 19.9567 185.101 19.4316 184.453 19.4316C183.805 19.4316 183.28 19.9567 183.28 20.6043C183.28 21.252 183.805 21.777 184.453 21.777Z" fill="#1ABB81"/>
<path d="M184.453 121.843C185.101 121.843 185.626 121.318 185.626 120.67C185.626 120.023 185.101 119.498 184.453 119.498C183.805 119.498 183.28 120.023 183.28 120.67C183.28 121.318 183.805 121.843 184.453 121.843Z" fill="#1ABB81"/>
<path d="M194.55 32.0733C195.36 32.0733 196.016 31.417 196.016 30.6075C196.016 29.7979 195.36 29.1416 194.55 29.1416C193.74 29.1416 193.084 29.7979 193.084 30.6075C193.084 31.417 193.74 32.0733 194.55 32.0733Z" fill="#1ABB81"/>
<path d="M194.55 42.3696C195.522 42.3696 196.309 41.5821 196.309 40.6106C196.309 39.6391 195.522 38.8516 194.55 38.8516C193.579 38.8516 192.791 39.6391 192.791 40.6106C192.791 41.5821 193.579 42.3696 194.55 42.3696Z" fill="#1ABB81"/>
<path d="M194.55 52.6776C195.683 52.6776 196.602 51.7587 196.602 50.6253C196.602 49.4919 195.683 48.5731 194.55 48.5731C193.417 48.5731 192.498 49.4919 192.498 50.6253C192.498 51.7587 193.417 52.6776 194.55 52.6776Z" fill="#1ABB81"/>
<path d="M194.55 62.9737C195.845 62.9737 196.895 61.9237 196.895 60.6283C196.895 59.333 195.845 58.283 194.55 58.283C193.255 58.283 192.205 59.333 192.205 60.6283C192.205 61.9237 193.255 62.9737 194.55 62.9737Z" fill="#1ABB81"/>
<path d="M197.282 70.6314C197.282 72.1442 196.063 73.3638 194.55 73.3638C193.037 73.3638 191.818 72.1442 191.818 70.6314C191.818 69.1186 193.037 67.899 194.55 67.899C196.063 67.899 197.282 69.1186 197.282 70.6314Z" fill="#1ABB81"/>
<path d="M194.55 82.9798C195.845 82.9798 196.895 81.9298 196.895 80.6345C196.895 79.3391 195.845 78.2891 194.55 78.2891C193.255 78.2891 192.205 79.3391 192.205 80.6345C192.205 81.9298 193.255 82.9798 194.55 82.9798Z" fill="#1ABB81"/>
<path d="M194.55 92.7016C195.683 92.7016 196.602 91.7828 196.602 90.6494C196.602 89.516 195.683 88.5972 194.55 88.5972C193.417 88.5972 192.498 89.516 192.498 90.6494C192.498 91.7828 193.417 92.7016 194.55 92.7016Z" fill="#1ABB81"/>
<path d="M194.55 102.412C195.522 102.412 196.309 101.624 196.309 100.652C196.309 99.681 195.522 98.8934 194.55 98.8934C193.579 98.8934 192.791 99.681 192.791 100.652C192.791 101.624 193.579 102.412 194.55 102.412Z" fill="#1ABB81"/>
<path d="M194.55 112.121C195.36 112.121 196.016 111.465 196.016 110.656C196.016 109.846 195.36 109.19 194.55 109.19C193.74 109.19 193.084 109.846 193.084 110.656C193.084 111.465 193.74 112.121 194.55 112.121Z" fill="#1ABB81"/>
<path d="M204.647 42.3696C205.618 42.3696 206.406 41.5821 206.406 40.6106C206.406 39.6391 205.618 38.8516 204.647 38.8516C203.675 38.8516 202.888 39.6391 202.888 40.6106C202.888 41.5821 203.675 42.3696 204.647 42.3696Z" fill="#1ABB81"/>
<path d="M204.647 52.6776C205.78 52.6776 206.699 51.7587 206.699 50.6253C206.699 49.4919 205.78 48.5731 204.647 48.5731C203.514 48.5731 202.595 49.4919 202.595 50.6253C202.595 51.7587 203.514 52.6776 204.647 52.6776Z" fill="#1ABB81"/>
<path d="M204.647 62.9737C205.942 62.9737 206.992 61.9237 206.992 60.6283C206.992 59.333 205.942 58.283 204.647 58.283C203.352 58.283 202.302 59.333 202.302 60.6283C202.302 61.9237 203.352 62.9737 204.647 62.9737Z" fill="#1ABB81"/>
<path d="M207.379 70.6314C207.379 72.1442 206.16 73.3638 204.647 73.3638C203.134 73.3638 201.915 72.1442 201.915 70.6314C201.915 69.1186 203.134 67.899 204.647 67.899C206.16 67.899 207.379 69.1186 207.379 70.6314Z" fill="#1ABB81"/>
<path d="M204.647 82.9798C205.942 82.9798 206.992 81.9298 206.992 80.6345C206.992 79.3391 205.942 78.2891 204.647 78.2891C203.352 78.2891 202.302 79.3391 202.302 80.6345C202.302 81.9298 203.352 82.9798 204.647 82.9798Z" fill="#1ABB81"/>
<path d="M204.647 92.7016C205.78 92.7016 206.699 91.7828 206.699 90.6494C206.699 89.516 205.78 88.5972 204.647 88.5972C203.514 88.5972 202.595 89.516 202.595 90.6494C202.595 91.7828 203.514 92.7016 204.647 92.7016Z" fill="#1ABB81"/>
<path d="M204.647 102.412C205.618 102.412 206.406 101.624 206.406 100.652C206.406 99.681 205.618 98.8934 204.647 98.8934C203.675 98.8934 202.888 99.681 202.888 100.652C202.888 101.624 203.675 102.412 204.647 102.412Z" fill="#1ABB81"/>
<path d="M214.744 32.0733C215.553 32.0733 216.21 31.417 216.21 30.6075C216.21 29.7979 215.553 29.1416 214.744 29.1416C213.934 29.1416 213.278 29.7979 213.278 30.6075C213.278 31.417 213.934 32.0733 214.744 32.0733Z" fill="#1ABB81"/>
<path d="M214.744 42.3696C215.715 42.3696 216.503 41.5821 216.503 40.6106C216.503 39.6391 215.715 38.8516 214.744 38.8516C213.772 38.8516 212.985 39.6391 212.985 40.6106C212.985 41.5821 213.772 42.3696 214.744 42.3696Z" fill="#1ABB81"/>
<path d="M214.744 52.6776C215.877 52.6776 216.796 51.7587 216.796 50.6253C216.796 49.4919 215.877 48.5731 214.744 48.5731C213.61 48.5731 212.692 49.4919 212.692 50.6253C212.692 51.7587 213.61 52.6776 214.744 52.6776Z" fill="#1ABB81"/>
<path d="M214.744 62.9737C216.039 62.9737 217.089 61.9237 217.089 60.6283C217.089 59.333 216.039 58.283 214.744 58.283C213.449 58.283 212.398 59.333 212.398 60.6283C212.398 61.9237 213.449 62.9737 214.744 62.9737Z" fill="#1ABB81"/>
<path d="M217.476 70.6314C217.476 72.1442 216.257 73.3638 214.744 73.3638C213.231 73.3638 212.011 72.1442 212.011 70.6314C212.011 69.1186 213.231 67.899 214.744 67.899C216.257 67.899 217.476 69.1186 217.476 70.6314Z" fill="#1ABB81"/>
<path d="M214.744 82.9798C216.039 82.9798 217.089 81.9298 217.089 80.6345C217.089 79.3391 216.039 78.2891 214.744 78.2891C213.449 78.2891 212.398 79.3391 212.398 80.6345C212.398 81.9298 213.449 82.9798 214.744 82.9798Z" fill="#1ABB81"/>
<path d="M214.744 92.7016C215.877 92.7016 216.796 91.7828 216.796 90.6494C216.796 89.516 215.877 88.5972 214.744 88.5972C213.61 88.5972 212.692 89.516 212.692 90.6494C212.692 91.7828 213.61 92.7016 214.744 92.7016Z" fill="#1ABB81"/>
<path d="M214.744 102.412C215.715 102.412 216.503 101.624 216.503 100.652C216.503 99.681 215.715 98.8934 214.744 98.8934C213.772 98.8934 212.985 99.681 212.985 100.652C212.985 101.624 213.772 102.412 214.744 102.412Z" fill="#1ABB81"/>
<path d="M214.744 112.121C215.553 112.121 216.21 111.465 216.21 110.656C216.21 109.846 215.553 109.19 214.744 109.19C213.934 109.19 213.278 109.846 213.278 110.656C213.278 111.465 213.934 112.121 214.744 112.121Z" fill="#1ABB81"/>
<path d="M194.55 21.777C195.198 21.777 195.723 21.252 195.723 20.6043C195.723 19.9567 195.198 19.4316 194.55 19.4316C193.902 19.4316 193.377 19.9567 193.377 20.6043C193.377 21.252 193.902 21.777 194.55 21.777Z" fill="#1ABB81"/>
<path d="M194.55 121.843C195.198 121.843 195.723 121.318 195.723 120.67C195.723 120.023 195.198 119.498 194.55 119.498C193.902 119.498 193.377 120.023 193.377 120.67C193.377 121.318 193.902 121.843 194.55 121.843Z" fill="#1ABB81"/>
<path d="M194.55 131.553C195.036 131.553 195.43 131.159 195.43 130.673C195.43 130.188 195.036 129.794 194.55 129.794C194.064 129.794 193.671 130.188 193.671 130.673C193.671 131.159 194.064 131.553 194.55 131.553Z" fill="#1ABB81"/>
<path d="M224.841 32.0733C225.65 32.0733 226.307 31.417 226.307 30.6075C226.307 29.7979 225.65 29.1416 224.841 29.1416C224.031 29.1416 223.375 29.7979 223.375 30.6075C223.375 31.417 224.031 32.0733 224.841 32.0733Z" fill="#1ABB81"/>
<path d="M224.841 42.3696C225.812 42.3696 226.6 41.5821 226.6 40.6106C226.6 39.6391 225.812 38.8516 224.841 38.8516C223.869 38.8516 223.082 39.6391 223.082 40.6106C223.082 41.5821 223.869 42.3696 224.841 42.3696Z" fill="#1ABB81"/>
<path d="M224.841 52.6776C225.974 52.6776 226.893 51.7587 226.893 50.6253C226.893 49.4919 225.974 48.5731 224.841 48.5731C223.707 48.5731 222.788 49.4919 222.788 50.6253C222.788 51.7587 223.707 52.6776 224.841 52.6776Z" fill="#1ABB81"/>
<path d="M224.841 62.9737C226.136 62.9737 227.186 61.9237 227.186 60.6283C227.186 59.333 226.136 58.283 224.841 58.283C223.545 58.283 222.495 59.333 222.495 60.6283C222.495 61.9237 223.545 62.9737 224.841 62.9737Z" fill="#1ABB81"/>
<path d="M227.573 70.6314C227.573 72.1442 226.354 73.3638 224.841 73.3638C223.328 73.3638 222.108 72.1442 222.108 70.6314C222.108 69.1186 223.328 67.899 224.841 67.899C226.354 67.899 227.573 69.1186 227.573 70.6314Z" fill="#1ABB81"/>
<path d="M224.841 82.9798C226.136 82.9798 227.186 81.9298 227.186 80.6345C227.186 79.3391 226.136 78.2891 224.841 78.2891C223.545 78.2891 222.495 79.3391 222.495 80.6345C222.495 81.9298 223.545 82.9798 224.841 82.9798Z" fill="#1ABB81"/>
<path d="M224.841 92.7016C225.974 92.7016 226.893 91.7828 226.893 90.6494C226.893 89.516 225.974 88.5972 224.841 88.5972C223.707 88.5972 222.788 89.516 222.788 90.6494C222.788 91.7828 223.707 92.7016 224.841 92.7016Z" fill="#1ABB81"/>
<path d="M234.938 52.6776C236.071 52.6776 236.99 51.7587 236.99 50.6253C236.99 49.4919 236.071 48.5731 234.938 48.5731C233.804 48.5731 232.885 49.4919 232.885 50.6253C232.885 51.7587 233.804 52.6776 234.938 52.6776Z" fill="#1ABB81"/>
<path d="M234.938 62.9737C236.233 62.9737 237.283 61.9237 237.283 60.6283C237.283 59.333 236.233 58.283 234.938 58.283C233.642 58.283 232.592 59.333 232.592 60.6283C232.592 61.9237 233.642 62.9737 234.938 62.9737Z" fill="#1ABB81"/>
<path d="M237.67 70.6314C237.67 72.1442 236.45 73.3638 234.938 73.3638C233.425 73.3638 232.205 72.1442 232.205 70.6314C232.205 69.1186 233.425 67.899 234.938 67.899C236.45 67.899 237.67 69.1186 237.67 70.6314Z" fill="#1ABB81"/>
<path d="M234.938 82.9798C236.233 82.9798 237.283 81.9298 237.283 80.6345C237.283 79.3391 236.233 78.2891 234.938 78.2891C233.642 78.2891 232.592 79.3391 232.592 80.6345C232.592 81.9298 233.642 82.9798 234.938 82.9798Z" fill="#1ABB81"/>
<path d="M234.938 92.7016C236.071 92.7016 236.99 91.7828 236.99 90.6494C236.99 89.516 236.071 88.5972 234.938 88.5972C233.804 88.5972 232.885 89.516 232.885 90.6494C232.885 91.7828 233.804 92.7016 234.938 92.7016Z" fill="#1ABB81"/>
<path d="M224.841 102.412C225.812 102.412 226.6 101.624 226.6 100.652C226.6 99.681 225.812 98.8934 224.841 98.8934C223.869 98.8934 223.082 99.681 223.082 100.652C223.082 101.624 223.869 102.412 224.841 102.412Z" fill="#1ABB81"/>
<path d="M224.841 112.121C225.65 112.121 226.307 111.465 226.307 110.656C226.307 109.846 225.65 109.19 224.841 109.19C224.031 109.19 223.375 109.846 223.375 110.656C223.375 111.465 224.031 112.121 224.841 112.121Z" fill="#1ABB81"/>
<path d="M224.841 21.777C225.488 21.777 226.013 21.252 226.013 20.6043C226.013 19.9567 225.488 19.4316 224.841 19.4316C224.193 19.4316 223.668 19.9567 223.668 20.6043C223.668 21.252 224.193 21.777 224.841 21.777Z" fill="#1ABB81"/>
<path d="M224.841 121.843C225.488 121.843 226.013 121.318 226.013 120.67C226.013 120.023 225.488 119.498 224.841 119.498C224.193 119.498 223.668 120.023 223.668 120.67C223.668 121.318 224.193 121.843 224.841 121.843Z" fill="#1ABB81"/>
<path d="M224.841 131.553C225.326 131.553 225.72 131.159 225.72 130.673C225.72 130.188 225.326 129.794 224.841 129.794C224.355 129.794 223.961 130.188 223.961 130.673C223.961 131.159 224.355 131.553 224.841 131.553Z" fill="#1ABB81"/>
<path d="M194.55 141.263C194.874 141.263 195.136 141 195.136 140.677C195.136 140.353 194.874 140.09 194.55 140.09C194.226 140.09 193.964 140.353 193.964 140.677C193.964 141 194.226 141.263 194.55 141.263Z" fill="#1ABB81"/>
</svg>
