<svg width="269" height="160" viewBox="0 0 269 160" fill="none" xmlns="http://www.w3.org/2000/svg">
<path d="M48.6747 1.32376C48.3091 1.32376 48.0128 1.02743 48.0128 0.661879C48.0128 0.296334 48.3091 0 48.6747 0C49.0402 0 49.3365 0.296334 49.3365 0.661879C49.3365 1.02743 49.0402 1.32376 48.6747 1.32376Z" fill="#1ABB81"/>
<path d="M48.6747 12.9463C48.1263 12.9463 47.6818 12.5018 47.6818 11.9535C47.6818 11.4052 48.1263 10.9607 48.6747 10.9607C49.223 10.9607 49.6675 11.4052 49.6675 11.9535C49.6675 12.5018 49.223 12.9463 48.6747 12.9463Z" fill="#1ABB81"/>
<path d="M14.482 12.9463C13.9337 12.9463 13.4892 12.5018 13.4892 11.9535C13.4892 11.4052 13.9337 10.9607 14.482 10.9607C15.0303 10.9607 15.4748 11.4052 15.4748 11.9535C15.4748 12.5018 15.0303 12.9463 14.482 12.9463Z" fill="#1ABB81"/>
<path d="M265.202 59.4632C263.922 59.4632 262.885 58.4261 262.885 57.1467C262.885 55.8672 263.922 54.8301 265.202 54.8301C266.481 54.8301 267.518 55.8672 267.518 57.1467C267.518 58.4261 266.481 59.4632 265.202 59.4632Z" fill="#1ABB81"/>
<path d="M265.202 71.0858C263.74 71.0858 262.554 69.9005 262.554 68.4383C262.554 66.9761 263.74 65.7908 265.202 65.7908C266.664 65.7908 267.849 66.9761 267.849 68.4383C267.849 69.9005 266.664 71.0858 265.202 71.0858Z" fill="#1ABB81"/>
<path d="M262.118 79.73C262.118 81.4376 263.494 82.8143 265.202 82.8143C266.91 82.8143 268.286 81.4376 268.286 79.73C268.286 78.0223 266.91 76.6456 265.202 76.6456C263.494 76.6456 262.118 78.0223 262.118 79.73Z" fill="#1ABB81"/>
<path d="M265.202 93.6692C263.74 93.6692 262.554 92.4838 262.554 91.0217C262.554 89.5595 263.74 88.3741 265.202 88.3741C266.664 88.3741 267.849 89.5595 267.849 91.0217C267.849 92.4838 266.664 93.6692 265.202 93.6692Z" fill="#1ABB81"/>
<path d="M265.202 104.643C263.922 104.643 262.885 103.606 262.885 102.327C262.885 101.047 263.922 100.01 265.202 100.01C266.481 100.01 267.518 101.047 267.518 102.327C267.518 103.606 266.481 104.643 265.202 104.643Z" fill="#1ABB81"/>
<path d="M253.804 36.2048C252.89 36.2048 252.15 35.4639 252.15 34.5501C252.15 33.6362 252.89 32.8954 253.804 32.8954C254.718 32.8954 255.459 33.6362 255.459 34.5501C255.459 35.4639 254.718 36.2048 253.804 36.2048Z" fill="#1ABB81"/>
<path d="M253.804 47.8275C252.708 47.8275 251.819 46.9385 251.819 45.8418C251.819 44.7452 252.708 43.8562 253.804 43.8562C254.901 43.8562 255.79 44.7452 255.79 45.8418C255.79 46.9385 254.901 47.8275 253.804 47.8275Z" fill="#1ABB81"/>
<path d="M253.804 59.4632C252.525 59.4632 251.488 58.4261 251.488 57.1467C251.488 55.8672 252.525 54.8301 253.804 54.8301C255.084 54.8301 256.121 55.8672 256.121 57.1467C256.121 58.4261 255.084 59.4632 253.804 59.4632Z" fill="#1ABB81"/>
<path d="M253.804 71.0858C252.342 71.0858 251.157 69.9005 251.157 68.4383C251.157 66.9761 252.342 65.7908 253.804 65.7908C255.267 65.7908 256.452 66.9761 256.452 68.4383C256.452 69.9005 255.267 71.0858 253.804 71.0858Z" fill="#1ABB81"/>
<path d="M250.72 79.73C250.72 81.4376 252.097 82.8143 253.804 82.8143C255.512 82.8143 256.889 81.4376 256.889 79.73C256.889 78.0223 255.512 76.6456 253.804 76.6456C252.097 76.6456 250.72 78.0223 250.72 79.73Z" fill="#1ABB81"/>
<path d="M253.804 93.6692C252.342 93.6692 251.157 92.4838 251.157 91.0217C251.157 89.5595 252.342 88.3741 253.804 88.3741C255.267 88.3741 256.452 89.5595 256.452 91.0217C256.452 92.4838 255.267 93.6692 253.804 93.6692Z" fill="#1ABB81"/>
<path d="M253.804 104.643C252.525 104.643 251.488 103.606 251.488 102.327C251.488 101.047 252.525 100.01 253.804 100.01C255.084 100.01 256.121 101.047 256.121 102.327C256.121 103.606 255.084 104.643 253.804 104.643Z" fill="#1ABB81"/>
<path d="M253.804 115.604C252.708 115.604 251.819 114.715 251.819 113.618C251.819 112.522 252.708 111.633 253.804 111.633C254.901 111.633 255.79 112.522 255.79 113.618C255.79 114.715 254.901 115.604 253.804 115.604Z" fill="#1ABB81"/>
<path d="M208.227 47.8275C207.131 47.8275 206.242 46.9385 206.242 45.8418C206.242 44.7452 207.131 43.8562 208.227 43.8562C209.324 43.8562 210.213 44.7452 210.213 45.8418C210.213 46.9385 209.324 47.8275 208.227 47.8275Z" fill="#1ABB81"/>
<path d="M208.227 59.4632C206.948 59.4632 205.911 58.4261 205.911 57.1467C205.911 55.8672 206.948 54.8301 208.227 54.8301C209.507 54.8301 210.544 55.8672 210.544 57.1467C210.544 58.4261 209.507 59.4632 208.227 59.4632Z" fill="#1ABB81"/>
<path d="M208.227 71.0858C206.765 71.0858 205.58 69.9005 205.58 68.4383C205.58 66.9761 206.765 65.7908 208.227 65.7908C209.689 65.7908 210.875 66.9761 210.875 68.4383C210.875 69.9005 209.689 71.0858 208.227 71.0858Z" fill="#1ABB81"/>
<path d="M205.143 79.73C205.143 81.4376 206.52 82.8143 208.227 82.8143C209.935 82.8143 211.312 81.4376 211.312 79.73C211.312 78.0223 209.935 76.6456 208.227 76.6456C206.52 76.6456 205.143 78.0223 205.143 79.73Z" fill="#1ABB81"/>
<path d="M208.227 93.6692C206.765 93.6692 205.58 92.4838 205.58 91.0217C205.58 89.5595 206.765 88.3741 208.227 88.3741C209.689 88.3741 210.875 89.5595 210.875 91.0217C210.875 92.4838 209.689 93.6692 208.227 93.6692Z" fill="#1ABB81"/>
<path d="M208.227 104.643C206.948 104.643 205.911 103.606 205.911 102.327C205.911 101.047 206.948 100.01 208.227 100.01C209.507 100.01 210.544 101.047 210.544 102.327C210.544 103.606 209.507 104.643 208.227 104.643Z" fill="#1ABB81"/>
<path d="M208.227 115.604C207.131 115.604 206.242 114.715 206.242 113.618C206.242 112.522 207.131 111.633 208.227 111.633C209.324 111.633 210.213 112.522 210.213 113.618C210.213 114.715 209.324 115.604 208.227 115.604Z" fill="#1ABB81"/>
<path d="M253.804 126.565C252.89 126.565 252.15 125.824 252.15 124.91C252.15 123.996 252.89 123.255 253.804 123.255C254.718 123.255 255.459 123.996 255.459 124.91C255.459 125.824 254.718 126.565 253.804 126.565Z" fill="#1ABB81"/>
<path d="M162.637 36.2048C161.723 36.2048 160.982 35.4639 160.982 34.5501C160.982 33.6362 161.723 32.8954 162.637 32.8954C163.551 32.8954 164.292 33.6362 164.292 34.5501C164.292 35.4639 163.551 36.2048 162.637 36.2048Z" fill="#1ABB81"/>
<path d="M162.637 47.8275C161.54 47.8275 160.651 46.9385 160.651 45.8418C160.651 44.7452 161.54 43.8562 162.637 43.8562C163.734 43.8562 164.623 44.7452 164.623 45.8418C164.623 46.9385 163.734 47.8275 162.637 47.8275Z" fill="#1ABB81"/>
<path d="M162.637 59.4632C161.358 59.4632 160.32 58.4261 160.32 57.1467C160.32 55.8672 161.358 54.8301 162.637 54.8301C163.916 54.8301 164.954 55.8672 164.954 57.1467C164.954 58.4261 163.916 59.4632 162.637 59.4632Z" fill="#1ABB81"/>
<path d="M162.637 71.0858C161.175 71.0858 159.99 69.9005 159.99 68.4383C159.99 66.9761 161.175 65.7908 162.637 65.7908C164.099 65.7908 165.285 66.9761 165.285 68.4383C165.285 69.9005 164.099 71.0858 162.637 71.0858Z" fill="#1ABB81"/>
<path d="M159.553 79.73C159.553 81.4376 160.929 82.8143 162.637 82.8143C164.345 82.8143 165.721 81.4376 165.721 79.73C165.721 78.0223 164.345 76.6456 162.637 76.6456C160.929 76.6456 159.553 78.0223 159.553 79.73Z" fill="#1ABB81"/>
<path d="M162.637 93.6692C161.175 93.6692 159.99 92.4838 159.99 91.0217C159.99 89.5595 161.175 88.3741 162.637 88.3741C164.099 88.3741 165.285 89.5595 165.285 91.0217C165.285 92.4838 164.099 93.6692 162.637 93.6692Z" fill="#1ABB81"/>
<path d="M162.637 104.643C161.358 104.643 160.32 103.606 160.32 102.327C160.32 101.047 161.358 100.01 162.637 100.01C163.916 100.01 164.954 101.047 164.954 102.327C164.954 103.606 163.916 104.643 162.637 104.643Z" fill="#1ABB81"/>
<path d="M162.637 115.604C161.54 115.604 160.651 114.715 160.651 113.618C160.651 112.522 161.54 111.633 162.637 111.633C163.734 111.633 164.623 112.522 164.623 113.618C164.623 114.715 163.734 115.604 162.637 115.604Z" fill="#1ABB81"/>
<path d="M162.637 126.565C161.723 126.565 160.982 125.824 160.982 124.91C160.982 123.996 161.723 123.255 162.637 123.255C163.551 123.255 164.292 123.996 164.292 124.91C164.292 125.824 163.551 126.565 162.637 126.565Z" fill="#1ABB81"/>
<path d="M151.24 36.2048C150.326 36.2048 149.585 35.4639 149.585 34.5501C149.585 33.6362 150.326 32.8954 151.24 32.8954C152.153 32.8954 152.894 33.6362 152.894 34.5501C152.894 35.4639 152.153 36.2048 151.24 36.2048Z" fill="#1ABB81"/>
<path d="M151.24 47.8275C150.143 47.8275 149.254 46.9385 149.254 45.8418C149.254 44.7452 150.143 43.8562 151.24 43.8562C152.336 43.8562 153.225 44.7452 153.225 45.8418C153.225 46.9385 152.336 47.8275 151.24 47.8275Z" fill="#1ABB81"/>
<path d="M151.24 59.4632C149.96 59.4632 148.923 58.4261 148.923 57.1467C148.923 55.8672 149.96 54.8301 151.24 54.8301C152.519 54.8301 153.556 55.8672 153.556 57.1467C153.556 58.4261 152.519 59.4632 151.24 59.4632Z" fill="#1ABB81"/>
<path d="M151.24 71.0858C149.777 71.0858 148.592 69.9005 148.592 68.4383C148.592 66.9761 149.777 65.7908 151.24 65.7908C152.702 65.7908 153.887 66.9761 153.887 68.4383C153.887 69.9005 152.702 71.0858 151.24 71.0858Z" fill="#1ABB81"/>
<path d="M148.155 79.73C148.155 81.4376 149.532 82.8143 151.239 82.8143C152.947 82.8143 154.324 81.4376 154.324 79.73C154.324 78.0223 152.947 76.6456 151.239 76.6456C149.532 76.6456 148.155 78.0223 148.155 79.73Z" fill="#1ABB81"/>
<path d="M151.24 93.6692C149.777 93.6692 148.592 92.4838 148.592 91.0217C148.592 89.5595 149.777 88.3741 151.24 88.3741C152.702 88.3741 153.887 89.5595 153.887 91.0217C153.887 92.4838 152.702 93.6692 151.24 93.6692Z" fill="#1ABB81"/>
<path d="M151.24 104.643C149.96 104.643 148.923 103.606 148.923 102.327C148.923 101.047 149.96 100.01 151.24 100.01C152.519 100.01 153.556 101.047 153.556 102.327C153.556 103.606 152.519 104.643 151.24 104.643Z" fill="#1ABB81"/>
<path d="M151.24 115.604C150.143 115.604 149.254 114.715 149.254 113.618C149.254 112.522 150.143 111.633 151.24 111.633C152.336 111.633 153.225 112.522 153.225 113.618C153.225 114.715 152.336 115.604 151.24 115.604Z" fill="#1ABB81"/>
<path d="M151.24 126.565C150.326 126.565 149.585 125.824 149.585 124.91C149.585 123.996 150.326 123.255 151.24 123.255C152.153 123.255 152.894 123.996 152.894 124.91C152.894 125.824 152.153 126.565 151.24 126.565Z" fill="#1ABB81"/>
<path d="M128.444 47.8275C127.348 47.8275 126.459 46.9385 126.459 45.8418C126.459 44.7452 127.348 43.8562 128.444 43.8562C129.541 43.8562 130.43 44.7452 130.43 45.8418C130.43 46.9385 129.541 47.8275 128.444 47.8275Z" fill="#1ABB81"/>
<path d="M128.444 59.4632C127.165 59.4632 126.128 58.4261 126.128 57.1467C126.128 55.8672 127.165 54.8301 128.444 54.8301C129.724 54.8301 130.761 55.8672 130.761 57.1467C130.761 58.4261 129.724 59.4632 128.444 59.4632Z" fill="#1ABB81"/>
<path d="M128.444 71.0858C126.982 71.0858 125.797 69.9005 125.797 68.4383C125.797 66.9761 126.982 65.7908 128.444 65.7908C129.907 65.7908 131.092 66.9761 131.092 68.4383C131.092 69.9005 129.907 71.0858 128.444 71.0858Z" fill="#1ABB81"/>
<path d="M125.36 79.73C125.36 81.4376 126.737 82.8143 128.444 82.8143C130.152 82.8143 131.529 81.4376 131.529 79.73C131.529 78.0223 130.152 76.6456 128.444 76.6456C126.737 76.6456 125.36 78.0223 125.36 79.73Z" fill="#1ABB81"/>
<path d="M128.444 93.6692C126.982 93.6692 125.797 92.4838 125.797 91.0217C125.797 89.5595 126.982 88.3741 128.444 88.3741C129.907 88.3741 131.092 89.5595 131.092 91.0217C131.092 92.4838 129.907 93.6692 128.444 93.6692Z" fill="#1ABB81"/>
<path d="M128.444 104.643C127.165 104.643 126.128 103.606 126.128 102.327C126.128 101.047 127.165 100.01 128.444 100.01C129.724 100.01 130.761 101.047 130.761 102.327C130.761 103.606 129.724 104.643 128.444 104.643Z" fill="#1ABB81"/>
<path d="M128.444 115.604C127.348 115.604 126.459 114.715 126.459 113.618C126.459 112.522 127.348 111.633 128.444 111.633C129.541 111.633 130.43 112.522 130.43 113.618C130.43 114.715 129.541 115.604 128.444 115.604Z" fill="#1ABB81"/>
<path d="M117.047 36.2048C116.133 36.2048 115.392 35.4639 115.392 34.5501C115.392 33.6362 116.133 32.8954 117.047 32.8954C117.961 32.8954 118.701 33.6362 118.701 34.5501C118.701 35.4639 117.961 36.2048 117.047 36.2048Z" fill="#1ABB81"/>
<path d="M117.047 47.8275C115.95 47.8275 115.061 46.9385 115.061 45.8418C115.061 44.7452 115.95 43.8562 117.047 43.8562C118.143 43.8562 119.032 44.7452 119.032 45.8418C119.032 46.9385 118.143 47.8275 117.047 47.8275Z" fill="#1ABB81"/>
<path d="M117.047 59.4632C115.767 59.4632 114.73 58.4261 114.73 57.1467C114.73 55.8672 115.767 54.8301 117.047 54.8301C118.326 54.8301 119.363 55.8672 119.363 57.1467C119.363 58.4261 118.326 59.4632 117.047 59.4632Z" fill="#1ABB81"/>
<path d="M117.047 71.0858C115.585 71.0858 114.399 69.9005 114.399 68.4383C114.399 66.9761 115.585 65.7908 117.047 65.7908C118.509 65.7908 119.694 66.9761 119.694 68.4383C119.694 69.9005 118.509 71.0858 117.047 71.0858Z" fill="#1ABB81"/>
<path d="M113.962 79.73C113.962 81.4376 115.339 82.8143 117.047 82.8143C118.754 82.8143 120.131 81.4376 120.131 79.73C120.131 78.0223 118.754 76.6456 117.047 76.6456C115.339 76.6456 113.962 78.0223 113.962 79.73Z" fill="#1ABB81"/>
<path d="M117.047 93.6692C115.585 93.6692 114.399 92.4838 114.399 91.0217C114.399 89.5595 115.585 88.3741 117.047 88.3741C118.509 88.3741 119.694 89.5595 119.694 91.0217C119.694 92.4838 118.509 93.6692 117.047 93.6692Z" fill="#1ABB81"/>
<path d="M117.047 104.643C115.767 104.643 114.73 103.606 114.73 102.327C114.73 101.047 115.767 100.01 117.047 100.01C118.326 100.01 119.363 101.047 119.363 102.327C119.363 103.606 118.326 104.643 117.047 104.643Z" fill="#1ABB81"/>
<path d="M117.047 115.604C115.95 115.604 115.061 114.715 115.061 113.618C115.061 112.522 115.95 111.633 117.047 111.633C118.143 111.633 119.032 112.522 119.032 113.618C119.032 114.715 118.143 115.604 117.047 115.604Z" fill="#1ABB81"/>
<path d="M105.649 59.4632C104.37 59.4632 103.333 58.4261 103.333 57.1467C103.333 55.8672 104.37 54.8301 105.649 54.8301C106.929 54.8301 107.966 55.8672 107.966 57.1467C107.966 58.4261 106.929 59.4632 105.649 59.4632Z" fill="#1ABB81"/>
<path d="M105.649 71.0858C104.187 71.0858 103.002 69.9005 103.002 68.4383C103.002 66.9761 104.187 65.7908 105.649 65.7908C107.111 65.7908 108.297 66.9761 108.297 68.4383C108.297 69.9005 107.111 71.0858 105.649 71.0858Z" fill="#1ABB81"/>
<path d="M102.565 79.73C102.565 81.4376 103.942 82.8143 105.649 82.8143C107.357 82.8143 108.734 81.4376 108.734 79.73C108.734 78.0223 107.357 76.6456 105.649 76.6456C103.942 76.6456 102.565 78.0223 102.565 79.73Z" fill="#1ABB81"/>
<path d="M105.649 93.6692C104.187 93.6692 103.002 92.4838 103.002 91.0217C103.002 89.5595 104.187 88.3741 105.649 88.3741C107.111 88.3741 108.297 89.5595 108.297 91.0217C108.297 92.4838 107.111 93.6692 105.649 93.6692Z" fill="#1ABB81"/>
<path d="M105.649 104.643C104.37 104.643 103.333 103.606 103.333 102.327C103.333 101.047 104.37 100.01 105.649 100.01C106.929 100.01 107.966 101.047 107.966 102.327C107.966 103.606 106.929 104.643 105.649 104.643Z" fill="#1ABB81"/>
<path d="M94.2516 47.8275C93.155 47.8275 92.266 46.9385 92.266 45.8418C92.266 44.7452 93.155 43.8562 94.2516 43.8562C95.3482 43.8562 96.2372 44.7452 96.2372 45.8418C96.2372 46.9385 95.3482 47.8275 94.2516 47.8275Z" fill="#1ABB81"/>
<path d="M94.2517 59.4632C92.9722 59.4632 91.9351 58.4261 91.9351 57.1467C91.9351 55.8672 92.9722 54.8301 94.2517 54.8301C95.5311 54.8301 96.5682 55.8672 96.5682 57.1467C96.5682 58.4261 95.5311 59.4632 94.2517 59.4632Z" fill="#1ABB81"/>
<path d="M94.2517 71.0858C92.7895 71.0858 91.6041 69.9005 91.6041 68.4383C91.6041 66.9761 92.7895 65.7908 94.2517 65.7908C95.7138 65.7908 96.8992 66.9761 96.8992 68.4383C96.8992 69.9005 95.7138 71.0858 94.2517 71.0858Z" fill="#1ABB81"/>
<path d="M91.1805 79.73C91.1805 81.4376 92.5572 82.8143 94.2649 82.8143C95.9725 82.8143 97.3492 81.4376 97.3492 79.73C97.3492 78.0223 95.9725 76.6456 94.2649 76.6456C92.5572 76.6456 91.1805 78.0223 91.1805 79.73Z" fill="#1ABB81"/>
<path d="M94.2517 93.6692C92.7895 93.6692 91.6041 92.4838 91.6041 91.0217C91.6041 89.5595 92.7895 88.3741 94.2517 88.3741C95.7138 88.3741 96.8992 89.5595 96.8992 91.0217C96.8992 92.4838 95.7138 93.6692 94.2517 93.6692Z" fill="#1ABB81"/>
<path d="M94.2517 104.643C92.9722 104.643 91.9351 103.606 91.9351 102.327C91.9351 101.047 92.9722 100.01 94.2517 100.01C95.5311 100.01 96.5682 101.047 96.5682 102.327C96.5682 103.606 95.5311 104.643 94.2517 104.643Z" fill="#1ABB81"/>
<path d="M82.8673 71.0858C81.4051 71.0858 80.2198 69.9005 80.2198 68.4383C80.2198 66.9761 81.4051 65.7908 82.8673 65.7908C84.3295 65.7908 85.5148 66.9761 85.5148 68.4383C85.5148 69.9005 84.3295 71.0858 82.8673 71.0858Z" fill="#1ABB81"/>
<path d="M79.783 79.73C79.783 81.4376 81.1597 82.8143 82.8674 82.8143C84.575 82.8143 85.9517 81.4376 85.9517 79.73C85.9517 78.0223 84.575 76.6456 82.8674 76.6456C81.1597 76.6456 79.783 78.0223 79.783 79.73Z" fill="#1ABB81"/>
<path d="M82.8673 93.6692C81.4051 93.6692 80.2198 92.4838 80.2198 91.0217C80.2198 89.5595 81.4051 88.3741 82.8673 88.3741C84.3295 88.3741 85.5148 89.5595 85.5148 91.0217C85.5148 92.4838 84.3295 93.6692 82.8673 93.6692Z" fill="#1ABB81"/>
<path d="M71.4698 59.4632C70.1904 59.4632 69.1532 58.4261 69.1532 57.1467C69.1532 55.8672 70.1904 54.8301 71.4698 54.8301C72.7492 54.8301 73.7864 55.8672 73.7864 57.1467C73.7864 58.4261 72.7492 59.4632 71.4698 59.4632Z" fill="#1ABB81"/>
<path d="M71.4698 71.0858C70.0076 71.0858 68.8223 69.9005 68.8223 68.4383C68.8223 66.9761 70.0076 65.7908 71.4698 65.7908C72.932 65.7908 74.1173 66.9761 74.1173 68.4383C74.1173 69.9005 72.932 71.0858 71.4698 71.0858Z" fill="#1ABB81"/>
<path d="M68.3854 79.73C68.3854 81.4376 69.7621 82.8143 71.4697 82.8143C73.1774 82.8143 74.5541 81.4376 74.5541 79.73C74.5541 78.0223 73.1774 76.6456 71.4697 76.6456C69.7621 76.6456 68.3854 78.0223 68.3854 79.73Z" fill="#1ABB81"/>
<path d="M71.4698 93.6692C70.0076 93.6692 68.8223 92.4838 68.8223 91.0217C68.8223 89.5595 70.0076 88.3741 71.4698 88.3741C72.932 88.3741 74.1173 89.5595 74.1173 91.0217C74.1173 92.4838 72.932 93.6692 71.4698 93.6692Z" fill="#1ABB81"/>
<path d="M71.4698 104.643C70.1904 104.643 69.1532 103.606 69.1532 102.327C69.1532 101.047 70.1904 100.01 71.4698 100.01C72.7492 100.01 73.7864 101.047 73.7864 102.327C73.7864 103.606 72.7492 104.643 71.4698 104.643Z" fill="#1ABB81"/>
<path d="M94.2516 115.604C93.155 115.604 92.266 114.715 92.266 113.618C92.266 112.522 93.155 111.633 94.2516 111.633C95.3482 111.633 96.2372 112.522 96.2372 113.618C96.2372 114.715 95.3482 115.604 94.2516 115.604Z" fill="#1ABB81"/>
<path d="M117.047 126.565C116.133 126.565 115.392 125.824 115.392 124.91C115.392 123.996 116.133 123.255 117.047 123.255C117.961 123.255 118.701 123.996 118.701 124.91C118.701 125.824 117.961 126.565 117.047 126.565Z" fill="#1ABB81"/>
<path d="M242.407 71.0858C240.945 71.0858 239.759 69.9005 239.759 68.4383C239.759 66.9761 240.945 65.7908 242.407 65.7908C243.869 65.7908 245.054 66.9761 245.054 68.4383C245.054 69.9005 243.869 71.0858 242.407 71.0858Z" fill="#1ABB81"/>
<path d="M239.322 79.73C239.322 81.4376 240.699 82.8143 242.407 82.8143C244.114 82.8143 245.491 81.4376 245.491 79.73C245.491 78.0223 244.114 76.6456 242.407 76.6456C240.699 76.6456 239.322 78.0223 239.322 79.73Z" fill="#1ABB81"/>
<path d="M242.407 93.6692C240.945 93.6692 239.759 92.4838 239.759 91.0217C239.759 89.5595 240.945 88.3741 242.407 88.3741C243.869 88.3741 245.054 89.5595 245.054 91.0217C245.054 92.4838 243.869 93.6692 242.407 93.6692Z" fill="#1ABB81"/>
<path d="M219.612 71.0858C218.149 71.0858 216.964 69.9005 216.964 68.4383C216.964 66.9761 218.149 65.7908 219.612 65.7908C221.074 65.7908 222.259 66.9761 222.259 68.4383C222.259 69.9005 221.074 71.0858 219.612 71.0858Z" fill="#1ABB81"/>
<path d="M216.541 79.73C216.541 81.4376 217.917 82.8143 219.625 82.8143C221.333 82.8143 222.709 81.4376 222.709 79.73C222.709 78.0223 221.333 76.6456 219.625 76.6456C217.917 76.6456 216.541 78.0223 216.541 79.73Z" fill="#1ABB81"/>
<path d="M219.612 93.6692C218.149 93.6692 216.964 92.4838 216.964 91.0217C216.964 89.5595 218.149 88.3741 219.612 88.3741C221.074 88.3741 222.259 89.5595 222.259 91.0217C222.259 92.4838 221.074 93.6692 219.612 93.6692Z" fill="#1ABB81"/>
<path d="M185.432 71.0858C183.97 71.0858 182.785 69.9005 182.785 68.4383C182.785 66.9761 183.97 65.7908 185.432 65.7908C186.894 65.7908 188.08 66.9761 188.08 68.4383C188.08 69.9005 186.894 71.0858 185.432 71.0858Z" fill="#1ABB81"/>
<path d="M182.348 79.73C182.348 81.4376 183.725 82.8143 185.432 82.8143C187.14 82.8143 188.517 81.4376 188.517 79.73C188.517 78.0223 187.14 76.6456 185.432 76.6456C183.725 76.6456 182.348 78.0223 182.348 79.73Z" fill="#1ABB81"/>
<path d="M185.432 93.6692C183.97 93.6692 182.785 92.4838 182.785 91.0217C182.785 89.5595 183.97 88.3741 185.432 88.3741C186.894 88.3741 188.08 89.5595 188.08 91.0217C188.08 92.4838 186.894 93.6692 185.432 93.6692Z" fill="#1ABB81"/>
<path d="M139.842 71.0858C138.38 71.0858 137.194 69.9005 137.194 68.4383C137.194 66.9761 138.38 65.7908 139.842 65.7908C141.304 65.7908 142.49 66.9761 142.49 68.4383C142.49 69.9005 141.304 71.0858 139.842 71.0858Z" fill="#1ABB81"/>
<path d="M136.758 79.73C136.758 81.4376 138.134 82.8143 139.842 82.8143C141.55 82.8143 142.926 81.4376 142.926 79.73C142.926 78.0223 141.55 76.6456 139.842 76.6456C138.134 76.6456 136.758 78.0223 136.758 79.73Z" fill="#1ABB81"/>
<path d="M139.842 93.6692C138.38 93.6692 137.194 92.4838 137.194 91.0217C137.194 89.5595 138.38 88.3741 139.842 88.3741C141.304 88.3741 142.49 89.5595 142.49 91.0217C142.49 92.4838 141.304 93.6692 139.842 93.6692Z" fill="#1ABB81"/>
<path d="M231.009 59.4632C229.73 59.4632 228.693 58.4261 228.693 57.1467C228.693 55.8672 229.73 54.8301 231.009 54.8301C232.289 54.8301 233.326 55.8672 233.326 57.1467C233.326 58.4261 232.289 59.4632 231.009 59.4632Z" fill="#1ABB81"/>
<path d="M231.009 71.0858C229.547 71.0858 228.362 69.9005 228.362 68.4383C228.362 66.9761 229.547 65.7908 231.009 65.7908C232.471 65.7908 233.657 66.9761 233.657 68.4383C233.657 69.9005 232.471 71.0858 231.009 71.0858Z" fill="#1ABB81"/>
<path d="M227.925 79.73C227.925 81.4376 229.301 82.8143 231.009 82.8143C232.717 82.8143 234.094 81.4376 234.094 79.73C234.094 78.0223 232.717 76.6456 231.009 76.6456C229.301 76.6456 227.925 78.0223 227.925 79.73Z" fill="#1ABB81"/>
<path d="M231.009 93.6692C229.547 93.6692 228.362 92.4838 228.362 91.0217C228.362 89.5595 229.547 88.3741 231.009 88.3741C232.471 88.3741 233.657 89.5595 233.657 91.0217C233.657 92.4838 232.471 93.6692 231.009 93.6692Z" fill="#1ABB81"/>
<path d="M231.009 104.643C229.73 104.643 228.693 103.606 228.693 102.327C228.693 101.047 229.73 100.01 231.009 100.01C232.289 100.01 233.326 101.047 233.326 102.327C233.326 103.606 232.289 104.643 231.009 104.643Z" fill="#1ABB81"/>
<path d="M174.035 59.4632C172.755 59.4632 171.718 58.4261 171.718 57.1467C171.718 55.8672 172.755 54.8301 174.035 54.8301C175.314 54.8301 176.351 55.8672 176.351 57.1467C176.351 58.4261 175.314 59.4632 174.035 59.4632Z" fill="#1ABB81"/>
<path d="M174.035 71.0858C172.572 71.0858 171.387 69.9005 171.387 68.4383C171.387 66.9761 172.572 65.7908 174.035 65.7908C175.497 65.7908 176.682 66.9761 176.682 68.4383C176.682 69.9005 175.497 71.0858 174.035 71.0858Z" fill="#1ABB81"/>
<path d="M170.95 79.73C170.95 81.4376 172.327 82.8143 174.035 82.8143C175.742 82.8143 177.119 81.4376 177.119 79.73C177.119 78.0223 175.742 76.6456 174.035 76.6456C172.327 76.6456 170.95 78.0223 170.95 79.73Z" fill="#1ABB81"/>
<path d="M174.035 93.6692C172.572 93.6692 171.387 92.4838 171.387 91.0217C171.387 89.5595 172.572 88.3741 174.035 88.3741C175.497 88.3741 176.682 89.5595 176.682 91.0217C176.682 92.4838 175.497 93.6692 174.035 93.6692Z" fill="#1ABB81"/>
<path d="M174.035 104.643C172.755 104.643 171.718 103.606 171.718 102.327C171.718 101.047 172.755 100.01 174.035 100.01C175.314 100.01 176.351 101.047 176.351 102.327C176.351 103.606 175.314 104.643 174.035 104.643Z" fill="#1ABB81"/>
<path d="M193.745 79.73C193.745 81.4376 195.122 82.8143 196.83 82.8143C198.537 82.8143 199.914 81.4376 199.914 79.73C199.914 78.0223 198.537 76.6456 196.83 76.6456C195.122 76.6456 193.745 78.0223 193.745 79.73Z" fill="#1ABB81"/>
<path d="M151.24 24.5822C150.508 24.5822 149.916 23.9895 149.916 23.2585C149.916 22.5274 150.508 21.9347 151.24 21.9347C151.971 21.9347 152.563 22.5274 152.563 23.2585C152.563 23.9895 151.971 24.5822 151.24 24.5822Z" fill="#1ABB81"/>
<path d="M151.24 137.539C150.508 137.539 149.916 136.946 149.916 136.215C149.916 135.484 150.508 134.891 151.24 134.891C151.971 134.891 152.563 135.484 152.563 136.215C152.563 136.946 151.971 137.539 151.24 137.539Z" fill="#1ABB81"/>
<path d="M60.0722 36.2048C59.1584 36.2048 58.4175 35.4639 58.4175 34.5501C58.4175 33.6362 59.1584 32.8954 60.0722 32.8954C60.9861 32.8954 61.7269 33.6362 61.7269 34.5501C61.7269 35.4639 60.9861 36.2048 60.0722 36.2048Z" fill="#1ABB81"/>
<path d="M60.0722 47.8275C58.9756 47.8275 58.0866 46.9385 58.0866 45.8418C58.0866 44.7452 58.9756 43.8562 60.0722 43.8562C61.1689 43.8562 62.0579 44.7452 62.0579 45.8418C62.0579 46.9385 61.1689 47.8275 60.0722 47.8275Z" fill="#1ABB81"/>
<path d="M60.0722 59.4632C58.7928 59.4632 57.7556 58.4261 57.7556 57.1467C57.7556 55.8672 58.7928 54.8301 60.0722 54.8301C61.3516 54.8301 62.3888 55.8672 62.3888 57.1467C62.3888 58.4261 61.3516 59.4632 60.0722 59.4632Z" fill="#1ABB81"/>
<path d="M60.0722 71.0858C58.61 71.0858 57.4247 69.9005 57.4247 68.4383C57.4247 66.9761 58.61 65.7908 60.0722 65.7908C61.5344 65.7908 62.7197 66.9761 62.7197 68.4383C62.7197 69.9005 61.5344 71.0858 60.0722 71.0858Z" fill="#1ABB81"/>
<path d="M56.9879 79.73C56.9879 81.4376 58.3646 82.8143 60.0722 82.8143C61.7799 82.8143 63.1566 81.4376 63.1566 79.73C63.1566 78.0223 61.7799 76.6456 60.0722 76.6456C58.3646 76.6456 56.9879 78.0223 56.9879 79.73Z" fill="#1ABB81"/>
<path d="M60.0722 93.6692C58.61 93.6692 57.4247 92.4838 57.4247 91.0217C57.4247 89.5595 58.61 88.3741 60.0722 88.3741C61.5344 88.3741 62.7197 89.5595 62.7197 91.0217C62.7197 92.4838 61.5344 93.6692 60.0722 93.6692Z" fill="#1ABB81"/>
<path d="M60.0722 104.643C58.7928 104.643 57.7556 103.606 57.7556 102.327C57.7556 101.047 58.7928 100.01 60.0722 100.01C61.3516 100.01 62.3888 101.047 62.3888 102.327C62.3888 103.606 61.3516 104.643 60.0722 104.643Z" fill="#1ABB81"/>
<path d="M60.0722 115.604C58.9756 115.604 58.0866 114.715 58.0866 113.618C58.0866 112.522 58.9756 111.633 60.0722 111.633C61.1689 111.633 62.0579 112.522 62.0579 113.618C62.0579 114.715 61.1689 115.604 60.0722 115.604Z" fill="#1ABB81"/>
<path d="M60.0722 126.565C59.1584 126.565 58.4175 125.824 58.4175 124.91C58.4175 123.996 59.1584 123.255 60.0722 123.255C60.9861 123.255 61.7269 123.996 61.7269 124.91C61.7269 125.824 60.9861 126.565 60.0722 126.565Z" fill="#1ABB81"/>
<path d="M60.0722 24.5822C59.3411 24.5822 58.7485 23.9895 58.7485 23.2585C58.7485 22.5274 59.3411 21.9347 60.0722 21.9347C60.8033 21.9347 61.396 22.5274 61.396 23.2585C61.396 23.9895 60.8033 24.5822 60.0722 24.5822Z" fill="#1ABB81"/>
<path d="M60.0722 137.539C59.3411 137.539 58.7485 136.946 58.7485 136.215C58.7485 135.484 59.3411 134.891 60.0722 134.891C60.8033 134.891 61.396 135.484 61.396 136.215C61.396 136.946 60.8033 137.539 60.0722 137.539Z" fill="#1ABB81"/>
<path d="M48.6747 36.2048C47.7608 36.2048 47.02 35.4639 47.02 34.5501C47.02 33.6362 47.7608 32.8954 48.6747 32.8954C49.5886 32.8954 50.3294 33.6362 50.3294 34.5501C50.3294 35.4639 49.5886 36.2048 48.6747 36.2048Z" fill="#1ABB81"/>
<path d="M48.6747 47.8275C47.5781 47.8275 46.6891 46.9385 46.6891 45.8418C46.6891 44.7452 47.5781 43.8562 48.6747 43.8562C49.7713 43.8562 50.6603 44.7452 50.6603 45.8418C50.6603 46.9385 49.7713 47.8275 48.6747 47.8275Z" fill="#1ABB81"/>
<path d="M48.6747 59.4632C47.3953 59.4632 46.3581 58.4261 46.3581 57.1467C46.3581 55.8672 47.3953 54.8301 48.6747 54.8301C49.9541 54.8301 50.9913 55.8672 50.9913 57.1467C50.9913 58.4261 49.9541 59.4632 48.6747 59.4632Z" fill="#1ABB81"/>
<path d="M48.6747 71.0858C47.2125 71.0858 46.0272 69.9005 46.0272 68.4383C46.0272 66.9761 47.2125 65.7908 48.6747 65.7908C50.1369 65.7908 51.3222 66.9761 51.3222 68.4383C51.3222 69.9005 50.1369 71.0858 48.6747 71.0858Z" fill="#1ABB81"/>
<path d="M45.5903 79.73C45.5903 81.4376 46.967 82.8143 48.6746 82.8143C50.3823 82.8143 51.759 81.4376 51.759 79.73C51.759 78.0223 50.3823 76.6456 48.6746 76.6456C46.967 76.6456 45.5903 78.0223 45.5903 79.73Z" fill="#1ABB81"/>
<path d="M48.6747 93.6692C47.2125 93.6692 46.0272 92.4838 46.0272 91.0217C46.0272 89.5595 47.2125 88.3741 48.6747 88.3741C50.1369 88.3741 51.3222 89.5595 51.3222 91.0217C51.3222 92.4838 50.1369 93.6692 48.6747 93.6692Z" fill="#1ABB81"/>
<path d="M48.6747 104.643C47.3953 104.643 46.3581 103.606 46.3581 102.327C46.3581 101.047 47.3953 100.01 48.6747 100.01C49.9541 100.01 50.9913 101.047 50.9913 102.327C50.9913 103.606 49.9541 104.643 48.6747 104.643Z" fill="#1ABB81"/>
<path d="M48.6747 115.604C47.5781 115.604 46.6891 114.715 46.6891 113.618C46.6891 112.522 47.5781 111.633 48.6747 111.633C49.7713 111.633 50.6603 112.522 50.6603 113.618C50.6603 114.715 49.7713 115.604 48.6747 115.604Z" fill="#1ABB81"/>
<path d="M48.6747 126.565C47.7608 126.565 47.02 125.824 47.02 124.91C47.02 123.996 47.7608 123.255 48.6747 123.255C49.5886 123.255 50.3294 123.996 50.3294 124.91C50.3294 125.824 49.5886 126.565 48.6747 126.565Z" fill="#1ABB81"/>
<path d="M37.2771 47.8275C36.1804 47.8275 35.2914 46.9385 35.2914 45.8418C35.2914 44.7452 36.1804 43.8562 37.2771 43.8562C38.3737 43.8562 39.2627 44.7452 39.2627 45.8418C39.2627 46.9385 38.3737 47.8275 37.2771 47.8275Z" fill="#1ABB81"/>
<path d="M37.277 59.4632C35.9976 59.4632 34.9605 58.4261 34.9605 57.1467C34.9605 55.8672 35.9976 54.8301 37.277 54.8301C38.5565 54.8301 39.5936 55.8672 39.5936 57.1467C39.5936 58.4261 38.5565 59.4632 37.277 59.4632Z" fill="#1ABB81"/>
<path d="M37.277 71.0858C35.8149 71.0858 34.6295 69.9005 34.6295 68.4383C34.6295 66.9761 35.8149 65.7908 37.277 65.7908C38.7392 65.7908 39.9246 66.9761 39.9246 68.4383C39.9246 69.9005 38.7392 71.0858 37.277 71.0858Z" fill="#1ABB81"/>
<path d="M34.1927 79.73C34.1927 81.4376 35.5694 82.8143 37.2771 82.8143C38.9847 82.8143 40.3615 81.4376 40.3615 79.73C40.3615 78.0223 38.9847 76.6456 37.2771 76.6456C35.5694 76.6456 34.1927 78.0223 34.1927 79.73Z" fill="#1ABB81"/>
<path d="M37.277 93.6692C35.8149 93.6692 34.6295 92.4838 34.6295 91.0217C34.6295 89.5595 35.8149 88.3741 37.277 88.3741C38.7392 88.3741 39.9246 89.5595 39.9246 91.0217C39.9246 92.4838 38.7392 93.6692 37.277 93.6692Z" fill="#1ABB81"/>
<path d="M37.277 104.643C35.9976 104.643 34.9605 103.606 34.9605 102.327C34.9605 101.047 35.9976 100.01 37.277 100.01C38.5565 100.01 39.5936 101.047 39.5936 102.327C39.5936 103.606 38.5565 104.643 37.277 104.643Z" fill="#1ABB81"/>
<path d="M37.2771 115.604C36.1804 115.604 35.2914 114.715 35.2914 113.618C35.2914 112.522 36.1804 111.633 37.2771 111.633C38.3737 111.633 39.2627 112.522 39.2627 113.618C39.2627 114.715 38.3737 115.604 37.2771 115.604Z" fill="#1ABB81"/>
<path d="M25.8795 36.2048C24.9657 36.2048 24.2248 35.4639 24.2248 34.5501C24.2248 33.6362 24.9657 32.8954 25.8795 32.8954C26.7934 32.8954 27.5342 33.6362 27.5342 34.5501C27.5342 35.4639 26.7934 36.2048 25.8795 36.2048Z" fill="#1ABB81"/>
<path d="M25.8795 47.8275C24.7829 47.8275 23.8939 46.9385 23.8939 45.8418C23.8939 44.7452 24.7829 43.8562 25.8795 43.8562C26.9762 43.8562 27.8652 44.7452 27.8652 45.8418C27.8652 46.9385 26.9762 47.8275 25.8795 47.8275Z" fill="#1ABB81"/>
<path d="M25.8795 59.4632C24.6001 59.4632 23.5629 58.4261 23.5629 57.1467C23.5629 55.8672 24.6001 54.8301 25.8795 54.8301C27.1589 54.8301 28.1961 55.8672 28.1961 57.1467C28.1961 58.4261 27.1589 59.4632 25.8795 59.4632Z" fill="#1ABB81"/>
<path d="M25.8795 71.0858C24.4173 71.0858 23.232 69.9005 23.232 68.4383C23.232 66.9761 24.4173 65.7908 25.8795 65.7908C27.3417 65.7908 28.527 66.9761 28.527 68.4383C28.527 69.9005 27.3417 71.0858 25.8795 71.0858Z" fill="#1ABB81"/>
<path d="M22.7951 79.73C22.7951 81.4376 24.1719 82.8143 25.8795 82.8143C27.5872 82.8143 28.9639 81.4376 28.9639 79.73C28.9639 78.0223 27.5872 76.6456 25.8795 76.6456C24.1719 76.6456 22.7951 78.0223 22.7951 79.73Z" fill="#1ABB81"/>
<path d="M25.8795 93.6692C24.4173 93.6692 23.232 92.4838 23.232 91.0217C23.232 89.5595 24.4173 88.3741 25.8795 88.3741C27.3417 88.3741 28.527 89.5595 28.527 91.0217C28.527 92.4838 27.3417 93.6692 25.8795 93.6692Z" fill="#1ABB81"/>
<path d="M25.8795 104.643C24.6001 104.643 23.5629 103.606 23.5629 102.327C23.5629 101.047 24.6001 100.01 25.8795 100.01C27.1589 100.01 28.1961 101.047 28.1961 102.327C28.1961 103.606 27.1589 104.643 25.8795 104.643Z" fill="#1ABB81"/>
<path d="M25.8795 115.604C24.7829 115.604 23.8939 114.715 23.8939 113.618C23.8939 112.522 24.7829 111.633 25.8795 111.633C26.9762 111.633 27.8652 112.522 27.8652 113.618C27.8652 114.715 26.9762 115.604 25.8795 115.604Z" fill="#1ABB81"/>
<path d="M25.8795 126.565C24.9657 126.565 24.2248 125.824 24.2248 124.91C24.2248 123.996 24.9657 123.255 25.8795 123.255C26.7934 123.255 27.5342 123.996 27.5342 124.91C27.5342 125.824 26.7934 126.565 25.8795 126.565Z" fill="#1ABB81"/>
<path d="M48.6747 24.5822C47.9436 24.5822 47.3509 23.9895 47.3509 23.2585C47.3509 22.5274 47.9436 21.9347 48.6747 21.9347C49.4057 21.9347 49.9984 22.5274 49.9984 23.2585C49.9984 23.9895 49.4057 24.5822 48.6747 24.5822Z" fill="#1ABB81"/>
<path d="M48.6747 137.539C47.9436 137.539 47.3509 136.946 47.3509 136.215C47.3509 135.484 47.9436 134.891 48.6747 134.891C49.4057 134.891 49.9984 135.484 49.9984 136.215C49.9984 136.946 49.4057 137.539 48.6747 137.539Z" fill="#1ABB81"/>
<path d="M48.6747 148.499C48.1263 148.499 47.6818 148.055 47.6818 147.506C47.6818 146.958 48.1263 146.514 48.6747 146.514C49.223 146.514 49.6675 146.958 49.6675 147.506C49.6675 148.055 49.223 148.499 48.6747 148.499Z" fill="#1ABB81"/>
<path d="M14.482 36.2048C13.5681 36.2048 12.8273 35.4639 12.8273 34.5501C12.8273 33.6362 13.5681 32.8954 14.482 32.8954C15.3958 32.8954 16.1367 33.6362 16.1367 34.5501C16.1367 35.4639 15.3958 36.2048 14.482 36.2048Z" fill="#1ABB81"/>
<path d="M14.482 47.8275C13.3854 47.8275 12.4964 46.9385 12.4964 45.8418C12.4964 44.7452 13.3854 43.8562 14.482 43.8562C15.5787 43.8562 16.4677 44.7452 16.4677 45.8418C16.4677 46.9385 15.5787 47.8275 14.482 47.8275Z" fill="#1ABB81"/>
<path d="M14.482 59.4632C13.2026 59.4632 12.1654 58.4261 12.1654 57.1467C12.1654 55.8672 13.2026 54.8301 14.482 54.8301C15.7614 54.8301 16.7986 55.8672 16.7986 57.1467C16.7986 58.4261 15.7614 59.4632 14.482 59.4632Z" fill="#1ABB81"/>
<path d="M14.482 71.0858C13.0198 71.0858 11.8345 69.9005 11.8345 68.4383C11.8345 66.9761 13.0198 65.7908 14.482 65.7908C15.9442 65.7908 17.1295 66.9761 17.1295 68.4383C17.1295 69.9005 15.9442 71.0858 14.482 71.0858Z" fill="#1ABB81"/>
<path d="M11.3976 79.73C11.3976 81.4376 12.7743 82.8143 14.482 82.8143C16.1896 82.8143 17.5663 81.4376 17.5663 79.73C17.5663 78.0223 16.1896 76.6456 14.482 76.6456C12.7743 76.6456 11.3976 78.0223 11.3976 79.73Z" fill="#1ABB81"/>
<path d="M14.482 93.6692C13.0198 93.6692 11.8345 92.4838 11.8345 91.0217C11.8345 89.5595 13.0198 88.3741 14.482 88.3741C15.9442 88.3741 17.1295 89.5595 17.1295 91.0217C17.1295 92.4838 15.9442 93.6692 14.482 93.6692Z" fill="#1ABB81"/>
<path d="M14.482 104.643C13.2026 104.643 12.1654 103.606 12.1654 102.327C12.1654 101.047 13.2026 100.01 14.482 100.01C15.7614 100.01 16.7986 101.047 16.7986 102.327C16.7986 103.606 15.7614 104.643 14.482 104.643Z" fill="#1ABB81"/>
<path d="M3.08436 59.4632C1.80495 59.4632 0.767784 58.4261 0.767784 57.1467C0.767784 55.8672 1.80495 54.8301 3.08436 54.8301C4.36377 54.8301 5.40094 55.8672 5.40094 57.1467C5.40094 58.4261 4.36377 59.4632 3.08436 59.4632Z" fill="#1ABB81"/>
<path d="M3.08435 71.0858C1.62217 71.0858 0.436837 69.9005 0.436837 68.4383C0.436837 66.9761 1.62217 65.7908 3.08435 65.7908C4.54654 65.7908 5.73187 66.9761 5.73187 68.4383C5.73187 69.9005 4.54654 71.0858 3.08435 71.0858Z" fill="#1ABB81"/>
<path d="M4.05312e-05 79.73C4.05312e-05 81.4376 1.37675 82.8143 3.0844 82.8143C4.79205 82.8143 6.16876 81.4376 6.16876 79.73C6.16876 78.0223 4.79205 76.6456 3.0844 76.6456C1.37675 76.6456 4.05312e-05 78.0223 4.05312e-05 79.73Z" fill="#1ABB81"/>
<path d="M3.08435 93.6692C1.62217 93.6692 0.436837 92.4838 0.436837 91.0217C0.436837 89.5595 1.62217 88.3741 3.08435 88.3741C4.54654 88.3741 5.73187 89.5595 5.73187 91.0217C5.73187 92.4838 4.54654 93.6692 3.08435 93.6692Z" fill="#1ABB81"/>
<path d="M3.08436 104.643C1.80495 104.643 0.767784 103.606 0.767784 102.327C0.767784 101.047 1.80495 100.01 3.08436 100.01C4.36377 100.01 5.40094 101.047 5.40094 102.327C5.40094 103.606 4.36377 104.643 3.08436 104.643Z" fill="#1ABB81"/>
<path d="M14.482 115.604C13.3854 115.604 12.4964 114.715 12.4964 113.618C12.4964 112.522 13.3854 111.633 14.482 111.633C15.5787 111.633 16.4677 112.522 16.4677 113.618C16.4677 114.715 15.5787 115.604 14.482 115.604Z" fill="#1ABB81"/>
<path d="M14.482 126.565C13.5681 126.565 12.8273 125.824 12.8273 124.91C12.8273 123.996 13.5681 123.255 14.482 123.255C15.3958 123.255 16.1367 123.996 16.1367 124.91C16.1367 125.824 15.3958 126.565 14.482 126.565Z" fill="#1ABB81"/>
<path d="M14.482 24.5822C13.7509 24.5822 13.1582 23.9895 13.1582 23.2585C13.1582 22.5274 13.7509 21.9347 14.482 21.9347C15.2131 21.9347 15.8057 22.5274 15.8057 23.2585C15.8057 23.9895 15.2131 24.5822 14.482 24.5822Z" fill="#1ABB81"/>
<path d="M14.482 137.539C13.7509 137.539 13.1582 136.946 13.1582 136.215C13.1582 135.484 13.7509 134.891 14.482 134.891C15.2131 134.891 15.8057 135.484 15.8057 136.215C15.8057 136.946 15.2131 137.539 14.482 137.539Z" fill="#1ABB81"/>
<path d="M14.482 148.499C13.9337 148.499 13.4892 148.055 13.4892 147.506C13.4892 146.958 13.9337 146.514 14.482 146.514C15.0303 146.514 15.4748 146.958 15.4748 147.506C15.4748 148.055 15.0303 148.499 14.482 148.499Z" fill="#1ABB81"/>
<path d="M48.6747 159.46C48.3091 159.46 48.0128 159.164 48.0128 158.798C48.0128 158.433 48.3091 158.136 48.6747 158.136C49.0402 158.136 49.3365 158.433 49.3365 158.798C49.3365 159.164 49.0402 159.46 48.6747 159.46Z" fill="#1ABB81"/>
</svg>
